  0
SECTION
  2
HEADER
  9
$ACADVER
  1
AC1014
  9
$HANDSEED
  5
FFFF
  9
$MEASUREMENT
 70
     1
  0
ENDSEC
  0
SECTION
  2
TABLES
  0
TABLE
  2
VPORT
  5
8
330
0
100
AcDbSymbolTable
 70
     4
  0
VPORT
  5
2E
330
8
100
AcDbSymbolTableRecord
100
AcDbViewportTableRecord
  2
*ACTIVE
 70
     0
 10
0.0
 20
0.0
 11
1.0
 21
1.0
 12
210.0
 22
148.5
 13
0.0
 23
0.0
 14
10.0
 24
10.0
 15
10.0
 25
10.0
 16
0.0
 26
0.0
 36
1.0
 17
0.0
 27
0.0
 37
0.0
 40
341.0
 41
1.24
 42
50.0
 43
0.0
 44
0.0
 50
0.0
 51
0.0
 71
     0
 72
   100
 73
     1
 74
     3
 75
     0
 76
     0
 77
     0
 78
     0
  0
ENDTAB
  0
TABLE
  2
LTYPE
  5
5
330
0
100
AcDbSymbolTable
 70
     1
  0
LTYPE
  5
14
330
5
100
AcDbSymbolTableRecord
100
AcDbLinetypeTableRecord
  2
BYBLOCK
 70
     0
  3

 72
    65
 73
     0
 40
0.0
  0
LTYPE
  5
15
330
5
100
AcDbSymbolTableRecord
100
AcDbLinetypeTableRecord
  2
BYLAYER
 70
     0
  3

 72
    65
 73
     0
 40
0.0
  0
LTYPE
  5
16
330
5
100
AcDbSymbolTableRecord
100
AcDbLinetypeTableRecord
  2
CONTINUOUS
 70
     0
  3
Solid line
 72
    65
 73
     0
 40
0.0
  0
ENDTAB
  0
TABLE
  2
LAYER
  5
2
100
AcDbSymbolTable
 70
2
  0
LAYER
  5
50
100
AcDbSymbolTableRecord
100
AcDbLayerTableRecord
  2
0
 70
0
  6
CONTINUOUS
  0
LAYER
  5
51
100
AcDbSymbolTableRecord
100
AcDbLayerTableRecord
  2
Ebene_1
 70
0
  6
CONTINUOUS
  0
ENDTAB
  0
TABLE
  2
STYLE
  5
3
330
0
100
AcDbSymbolTable
 70
     1
  0
STYLE
  5
11
330
3
100
AcDbSymbolTableRecord
100
AcDbTextStyleTableRecord
  2
STANDARD
 70
     0
 40
0.0
 41
1.0
 50
0.0
 71
     0
 42
2.5
  3
txt
  4

  0
ENDTAB
  0
TABLE
  2
VIEW
  5
6
330
0
100
AcDbSymbolTable
 70
     0
  0
ENDTAB
  0
TABLE
  2
UCS
  5
7
330
0
100
AcDbSymbolTable
 70
     0
  0
ENDTAB
  0
TABLE
  2
APPID
  5
9
330
0
100
AcDbSymbolTable
 70
     2
  0
APPID
  5
12
330
9
100
AcDbSymbolTableRecord
100
AcDbRegAppTableRecord
  2
ACAD
 70
     0
  0
ENDTAB
  0
TABLE
  2
DIMSTYLE
  5
A
330
0
100
AcDbSymbolTable
 70
     1
  0
DIMSTYLE
105
27
330
A
100
AcDbSymbolTableRecord
100
AcDbDimStyleTableRecord
  2
ISO-25
 70
     0
  3

  4

  5

  6

  7

 40
1.0
 41
2.5
 42
0.625
 43
3.75
 44
1.25
 45
0.0
 46
0.0
 47
0.0
 48
0.0
140
2.5
141
2.5
142
0.0
143
0.03937007874016
144
1.0
145
0.0
146
1.0
147
0.625
 71
     0
 72
     0
 73
     0
 74
     0
 75
     0
 76
     0
 77
     1
 78
     8
170
     0
171
     3
172
     1
173
     0
174
     0
175
     0
176
     0
177
     0
178
     0
270
     2
271
     2
272
     2
273
     2
274
     3
340
11
275
     0
280
     0
281
     0
282
     0
283
     0
284
     8
285
     0
286
     0
287
     3
288
     0
  0
ENDTAB
  0
TABLE
  2
BLOCK_RECORD
  5
1
330
0
100
AcDbSymbolTable
 70
     1
  0
BLOCK_RECORD
  5
1F
330
1
100
AcDbSymbolTableRecord
100
AcDbBlockTableRecord
  2
*MODEL_SPACE
  0
BLOCK_RECORD
  5
1B
330
1
100
AcDbSymbolTableRecord
100
AcDbBlockTableRecord
  2
*PAPER_SPACE
  0
ENDTAB
  0
ENDSEC
  0
SECTION
  2
BLOCKS
  0
BLOCK
  5
20
330
1F
100
AcDbEntity
  8
0
100
AcDbBlockBegin
  2
*MODEL_SPACE
 70
     0
 10
0.0
 20
0.0
 30
0.0
  3
*MODEL_SPACE
  1

  0
ENDBLK
  5
21
330
1F
100
AcDbEntity
  8
0
100
AcDbBlockEnd
  0
BLOCK
  5
1C
330
1B
100
AcDbEntity
 67
     1
  8
0
100
AcDbBlockBegin
  2
*PAPER_SPACE
  1

  0
ENDBLK
  5
1D
330
1B
100
AcDbEntity
 67
     1
  8
0
100
AcDbBlockEnd
  0
ENDSEC
  0
SECTION
  2
ENTITIES
  0
LINE
  5
100
100
AcDbEntity
  8
Ebene_1
 62
7
100
AcDbLine
 10
-113.445606
 20
-27.300184
 30
0.0
 11
-110.780280
 21
-26.695737
 31
0.0
  0
LINE
  5
101
100
AcDbEntity
  8
Ebene_1
 62
7
100
AcDbLine
 10
-110.780280
 20
-26.695737
 30
0.0
 11
-108.334375
 21
-25.842910
 31
0.0
  0
LINE
  5
102
100
AcDbEntity
  8
Ebene_1
 62
7
100
AcDbLine
 10
-108.334375
 20
-25.842910
 30
0.0
 11
-106.132466
 21
-24.760791
 31
0.0
  0
LINE
  5
103
100
AcDbEntity
  8
Ebene_1
 62
7
100
AcDbLine
 10
-106.132466
 20
-24.760791
 30
0.0
 11
-104.199120
 21
-23.468467
 31
0.0
  0
LINE
  5
104
100
AcDbEntity
  8
Ebene_1
 62
7
100
AcDbLine
 10
-104.199120
 20
-23.468467
 30
0.0
 11
-102.558909
 21
-21.985025
 31
0.0
  0
LINE
  5
105
100
AcDbEntity
  8
Ebene_1
 62
7
100
AcDbLine
 10
-102.558909
 20
-21.985025
 30
0.0
 11
-101.236410
 21
-20.329549
 31
0.0
  0
LINE
  5
106
100
AcDbEntity
  8
Ebene_1
 62
7
100
AcDbLine
 10
-101.236410
 20
-20.329549
 30
0.0
 11
-100.256193
 21
-18.521128
 31
0.0
  0
LINE
  5
107
100
AcDbEntity
  8
Ebene_1
 62
7
100
AcDbLine
 10
-100.256193
 20
-18.521128
 30
0.0
 11
-99.642828
 21
-16.578847
 31
0.0
  0
LINE
  5
108
100
AcDbEntity
  8
Ebene_1
 62
7
100
AcDbLine
 10
-99.642828
 20
-16.578847
 30
0.0
 11
-99.423068
 21
-14.557681
 31
0.0
  0
LINE
  5
109
100
AcDbEntity
  8
Ebene_1
 62
7
100
AcDbLine
 10
-99.423068
 20
-14.557681
 30
0.0
 11
-99.550037
 21
-12.498692
 31
0.0
  0
LINE
  5
10a
100
AcDbEntity
  8
Ebene_1
 62
7
100
AcDbLine
 10
-99.550037
 20
-12.498692
 30
0.0
 11
-99.988932
 21
-10.642647
 31
0.0
  0
LINE
  5
10b
100
AcDbEntity
  8
Ebene_1
 62
7
100
AcDbLine
 10
-99.988932
 20
-10.642647
 30
0.0
 11
-100.704958
 21
-9.230311
 31
0.0
  0
LINE
  5
10c
100
AcDbEntity
  8
Ebene_1
 62
7
100
AcDbLine
 10
-100.704958
 20
-9.230311
 30
0.0
 11
-101.594138
 21
-8.250068
 31
0.0
  0
LINE
  5
10d
100
AcDbEntity
  8
Ebene_1
 62
7
100
AcDbLine
 10
-101.594138
 20
-8.250068
 30
0.0
 11
-102.662321
 21
-7.467723
 31
0.0
  0
LINE
  5
10e
100
AcDbEntity
  8
Ebene_1
 62
7
100
AcDbLine
 10
-102.662321
 20
-7.467723
 30
0.0
 11
-103.978716
 21
-6.870143
 31
0.0
  0
LINE
  5
10f
100
AcDbEntity
  8
Ebene_1
 62
7
100
AcDbLine
 10
-103.978716
 20
-6.870143
 30
0.0
 11
-105.612531
 21
-6.444190
 31
0.0
  0
LINE
  5
110
100
AcDbEntity
  8
Ebene_1
 62
7
100
AcDbLine
 10
-105.612531
 20
-6.444190
 30
0.0
 11
-107.632977
 21
-6.176737
 31
0.0
  0
LINE
  5
111
100
AcDbEntity
  8
Ebene_1
 62
7
100
AcDbLine
 10
-107.632977
 20
-6.176737
 30
0.0
 11
-110.109257
 21
-6.054653
 31
0.0
  0
LINE
  5
112
100
AcDbEntity
  8
Ebene_1
 62
7
100
AcDbLine
 10
-110.109257
 20
-6.054653
 30
0.0
 11
-116.706167
 21
-6.194051
 31
0.0
  0
LINE
  5
113
100
AcDbEntity
  8
Ebene_1
 62
7
100
AcDbLine
 10
-116.706167
 20
-6.194051
 30
0.0
 11
-120.476320
 21
-6.324477
 31
0.0
  0
LINE
  5
114
100
AcDbEntity
  8
Ebene_1
 62
7
100
AcDbLine
 10
-120.476320
 20
-6.324477
 30
0.0
 11
-121.223191
 21
-6.273547
 31
0.0
  0
LINE
  5
115
100
AcDbEntity
  8
Ebene_1
 62
7
100
AcDbLine
 10
-121.223191
 20
-6.273547
 30
0.0
 11
-121.628236
 21
-6.140672
 31
0.0
  0
LINE
  5
116
100
AcDbEntity
  8
Ebene_1
 62
7
100
AcDbLine
 10
-121.628236
 20
-6.140672
 30
0.0
 11
-122.192762
 21
-5.663002
 31
0.0
  0
LINE
  5
117
100
AcDbEntity
  8
Ebene_1
 62
7
100
AcDbLine
 10
-122.192762
 20
-5.663002
 30
0.0
 11
-122.341648
 21
-4.881735
 31
0.0
  0
LINE
  5
118
100
AcDbEntity
  8
Ebene_1
 62
7
100
AcDbLine
 10
-122.341648
 20
-4.881735
 30
0.0
 11
-122.210647
 21
-4.361980
 31
0.0
  0
LINE
  5
119
100
AcDbEntity
  8
Ebene_1
 62
7
100
AcDbLine
 10
-122.210647
 20
-4.361980
 30
0.0
 11
-121.875996
 21
-3.706897
 31
0.0
  0
LINE
  5
11a
100
AcDbEntity
  8
Ebene_1
 62
7
100
AcDbLine
 10
-121.875996
 20
-3.706897
 30
0.0
 11
-121.425216
 21
-3.061413
 31
0.0
  0
LINE
  5
11b
100
AcDbEntity
  8
Ebene_1
 62
7
100
AcDbLine
 10
-121.425216
 20
-3.061413
 30
0.0
 11
-120.945834
 21
-2.570456
 31
0.0
  0
LINE
  5
11c
100
AcDbEntity
  8
Ebene_1
 62
7
100
AcDbLine
 10
-120.945834
 20
-2.570456
 30
0.0
 11
-120.430795
 21
-2.310848
 31
0.0
  0
LINE
  5
11d
100
AcDbEntity
  8
Ebene_1
 62
7
100
AcDbLine
 10
-120.430795
 20
-2.310848
 30
0.0
 11
-119.542269
 21
-2.454127
 31
0.0
  0
LINE
  5
11e
100
AcDbEntity
  8
Ebene_1
 62
7
100
AcDbLine
 10
-119.542269
 20
-2.454127
 30
0.0
 11
-118.206348
 21
-2.624606
 31
0.0
  0
LINE
  5
11f
100
AcDbEntity
  8
Ebene_1
 62
7
100
AcDbLine
 10
-118.206348
 20
-2.624606
 30
0.0
 11
-116.412171
 21
-2.677218
 31
0.0
  0
LINE
  5
120
100
AcDbEntity
  8
Ebene_1
 62
7
100
AcDbLine
 10
-116.412171
 20
-2.677218
 30
0.0
 11
-114.550125
 21
-2.613185
 31
0.0
  0
LINE
  5
121
100
AcDbEntity
  8
Ebene_1
 62
7
100
AcDbLine
 10
-114.550125
 20
-2.613185
 30
0.0
 11
-113.010597
 21
-2.433722
 31
0.0
  0
LINE
  5
122
100
AcDbEntity
  8
Ebene_1
 62
7
100
AcDbLine
 10
-113.010597
 20
-2.433722
 30
0.0
 11
-110.762088
 21
-1.878021
 31
0.0
  0
LINE
  5
123
100
AcDbEntity
  8
Ebene_1
 62
7
100
AcDbLine
 10
-110.762088
 20
-1.878021
 30
0.0
 11
-108.849098
 21
-1.104444
 31
0.0
  0
LINE
  5
124
100
AcDbEntity
  8
Ebene_1
 62
7
100
AcDbLine
 10
-108.849098
 20
-1.104444
 30
0.0
 11
-107.161567
 21
-0.057335
 31
0.0
  0
LINE
  5
125
100
AcDbEntity
  8
Ebene_1
 62
7
100
AcDbLine
 10
-107.161567
 20
-0.057335
 30
0.0
 11
-105.589420
 21
1.318970
 31
0.0
  0
LINE
  5
126
100
AcDbEntity
  8
Ebene_1
 62
7
100
AcDbLine
 10
-105.589420
 20
1.318970
 30
0.0
 11
-104.331460
 21
2.721721
 31
0.0
  0
LINE
  5
127
100
AcDbEntity
  8
Ebene_1
 62
7
100
AcDbLine
 10
-104.331460
 20
2.721721
 30
0.0
 11
-103.541601
 21
4.013819
 31
0.0
  0
LINE
  5
128
100
AcDbEntity
  8
Ebene_1
 62
7
100
AcDbLine
 10
-103.541601
 20
4.013819
 30
0.0
 11
-102.761175
 21
6.007206
 31
0.0
  0
LINE
  5
129
100
AcDbEntity
  8
Ebene_1
 62
7
100
AcDbLine
 10
-102.761175
 20
6.007206
 30
0.0
 11
-102.355791
 21
8.051014
 31
0.0
  0
LINE
  5
12a
100
AcDbEntity
  8
Ebene_1
 62
7
100
AcDbLine
 10
-102.355791
 20
8.051014
 30
0.0
 11
-102.319923
 21
10.197749
 31
0.0
  0
LINE
  5
12b
100
AcDbEntity
  8
Ebene_1
 62
7
100
AcDbLine
 10
-102.319923
 20
10.197749
 30
0.0
 11
-102.648044
 21
12.499931
 31
0.0
  0
LINE
  5
12c
100
AcDbEntity
  8
Ebene_1
 62
7
100
AcDbLine
 10
-102.648044
 20
12.499931
 30
0.0
 11
-100.331945
 21
12.711629
 31
0.0
  0
LINE
  5
12d
100
AcDbEntity
  8
Ebene_1
 62
7
100
AcDbLine
 10
-100.331945
 20
12.711629
 30
0.0
 11
-97.988707
 21
12.795316
 31
0.0
  0
LINE
  5
12e
100
AcDbEntity
  8
Ebene_1
 62
7
100
AcDbLine
 10
-97.988707
 20
12.795316
 30
0.0
 11
-97.943456
 21
16.272277
 31
0.0
  0
LINE
  5
12f
100
AcDbEntity
  8
Ebene_1
 62
7
100
AcDbLine
 10
-97.943456
 20
16.272277
 30
0.0
 11
-97.951781
 21
19.113772
 31
0.0
  0
LINE
  5
130
100
AcDbEntity
  8
Ebene_1
 62
7
100
AcDbLine
 10
-97.951781
 20
19.113772
 30
0.0
 11
-98.018213
 21
19.658472
 31
0.0
  0
LINE
  5
131
100
AcDbEntity
  8
Ebene_1
 62
7
100
AcDbLine
 10
-98.018213
 20
19.658472
 30
0.0
 11
-98.138290
 21
19.841361
 31
0.0
  0
LINE
  5
132
100
AcDbEntity
  8
Ebene_1
 62
7
100
AcDbLine
 10
-98.138290
 20
19.841361
 30
0.0
 11
-100.443095
 21
19.573199
 31
0.0
  0
LINE
  5
133
100
AcDbEntity
  8
Ebene_1
 62
7
100
AcDbLine
 10
-100.443095
 20
19.573199
 30
0.0
 11
-102.736371
 21
19.283436
 31
0.0
  0
LINE
  5
134
100
AcDbEntity
  8
Ebene_1
 62
7
100
AcDbLine
 10
-102.736371
 20
19.283436
 30
0.0
 11
-105.437573
 21
19.119558
 31
0.0
  0
LINE
  5
135
100
AcDbEntity
  8
Ebene_1
 62
7
100
AcDbLine
 10
-105.437573
 20
19.119558
 30
0.0
 11
-108.367328
 21
19.026207
 31
0.0
  0
LINE
  5
136
100
AcDbEntity
  8
Ebene_1
 62
7
100
AcDbLine
 10
-108.367328
 20
19.026207
 30
0.0
 11
-109.621927
 21
19.660598
 31
0.0
  0
LINE
  5
137
100
AcDbEntity
  8
Ebene_1
 62
7
100
AcDbLine
 10
-109.621927
 20
19.660598
 30
0.0
 11
-110.833225
 21
20.217591
 31
0.0
  0
LINE
  5
138
100
AcDbEntity
  8
Ebene_1
 62
7
100
AcDbLine
 10
-110.833225
 20
20.217591
 30
0.0
 11
-111.995054
 21
20.619710
 31
0.0
  0
LINE
  5
139
100
AcDbEntity
  8
Ebene_1
 62
7
100
AcDbLine
 10
-111.995054
 20
20.619710
 30
0.0
 11
-114.684288
 21
21.106086
 31
0.0
  0
LINE
  5
13a
100
AcDbEntity
  8
Ebene_1
 62
7
100
AcDbLine
 10
-114.684288
 20
21.106086
 30
0.0
 11
-116.451733
 21
21.210328
 31
0.0
  0
LINE
  5
13b
100
AcDbEntity
  8
Ebene_1
 62
7
100
AcDbLine
 10
-116.451733
 20
21.210328
 30
0.0
 11
-118.196476
 21
21.140495
 31
0.0
  0
LINE
  5
13c
100
AcDbEntity
  8
Ebene_1
 62
7
100
AcDbLine
 10
-118.196476
 20
21.140495
 30
0.0
 11
-119.898758
 21
20.902497
 31
0.0
  0
LINE
  5
13d
100
AcDbEntity
  8
Ebene_1
 62
7
100
AcDbLine
 10
-119.898758
 20
20.902497
 30
0.0
 11
-121.538825
 21
20.502249
 31
0.0
  0
LINE
  5
13e
100
AcDbEntity
  8
Ebene_1
 62
7
100
AcDbLine
 10
-121.538825
 20
20.502249
 30
0.0
 11
-123.096912
 21
19.945662
 31
0.0
  0
LINE
  5
13f
100
AcDbEntity
  8
Ebene_1
 62
7
100
AcDbLine
 10
-123.096912
 20
19.945662
 30
0.0
 11
-124.553260
 21
19.238647
 31
0.0
  0
LINE
  5
140
100
AcDbEntity
  8
Ebene_1
 62
7
100
AcDbLine
 10
-124.553260
 20
19.238647
 30
0.0
 11
-125.888112
 21
18.387115
 31
0.0
  0
LINE
  5
141
100
AcDbEntity
  8
Ebene_1
 62
7
100
AcDbLine
 10
-125.888112
 20
18.387115
 30
0.0
 11
-127.081709
 21
17.396978
 31
0.0
  0
LINE
  5
142
100
AcDbEntity
  8
Ebene_1
 62
7
100
AcDbLine
 10
-127.081709
 20
17.396978
 30
0.0
 11
-128.655758
 21
15.636865
 31
0.0
  0
LINE
  5
143
100
AcDbEntity
  8
Ebene_1
 62
7
100
AcDbLine
 10
-128.655758
 20
15.636865
 30
0.0
 11
-129.743742
 21
13.771808
 31
0.0
  0
LINE
  5
144
100
AcDbEntity
  8
Ebene_1
 62
7
100
AcDbLine
 10
-129.743742
 20
13.771808
 30
0.0
 11
-130.376402
 21
11.732052
 31
0.0
  0
LINE
  5
145
100
AcDbEntity
  8
Ebene_1
 62
7
100
AcDbLine
 10
-130.376402
 20
11.732052
 30
0.0
 11
-130.584479
 21
9.447833
 31
0.0
  0
LINE
  5
146
100
AcDbEntity
  8
Ebene_1
 62
7
100
AcDbLine
 10
-130.584479
 20
9.447833
 30
0.0
 11
-130.524225
 21
7.906564
 31
0.0
  0
LINE
  5
147
100
AcDbEntity
  8
Ebene_1
 62
7
100
AcDbLine
 10
-130.524225
 20
7.906564
 30
0.0
 11
-130.323646
 21
6.563604
 31
0.0
  0
LINE
  5
148
100
AcDbEntity
  8
Ebene_1
 62
7
100
AcDbLine
 10
-130.323646
 20
6.563604
 30
0.0
 11
-129.965408
 21
5.339321
 31
0.0
  0
LINE
  5
149
100
AcDbEntity
  8
Ebene_1
 62
7
100
AcDbLine
 10
-129.965408
 20
5.339321
 30
0.0
 11
-129.432174
 21
4.154084
 31
0.0
  0
LINE
  5
14a
100
AcDbEntity
  8
Ebene_1
 62
7
100
AcDbLine
 10
-129.432174
 20
4.154084
 30
0.0
 11
-128.757398
 21
3.125485
 31
0.0
  0
LINE
  5
14b
100
AcDbEntity
  8
Ebene_1
 62
7
100
AcDbLine
 10
-128.757398
 20
3.125485
 30
0.0
 11
-127.828813
 21
2.074442
 31
0.0
  0
LINE
  5
14c
100
AcDbEntity
  8
Ebene_1
 62
7
100
AcDbLine
 10
-127.828813
 20
2.074442
 30
0.0
 11
-126.730828
 21
1.085905
 31
0.0
  0
LINE
  5
14d
100
AcDbEntity
  8
Ebene_1
 62
7
100
AcDbLine
 10
-126.730828
 20
1.085905
 30
0.0
 11
-125.547851
 21
0.244823
 31
0.0
  0
LINE
  5
14e
100
AcDbEntity
  8
Ebene_1
 62
7
100
AcDbLine
 10
-125.547851
 20
0.244823
 30
0.0
 11
-124.810955
 21
-0.281298
 31
0.0
  0
LINE
  5
14f
100
AcDbEntity
  8
Ebene_1
 62
7
100
AcDbLine
 10
-124.810955
 20
-0.281298
 30
0.0
 11
-124.646763
 21
-0.596662
 31
0.0
  0
LINE
  5
150
100
AcDbEntity
  8
Ebene_1
 62
7
100
AcDbLine
 10
-124.646763
 20
-0.596662
 30
0.0
 11
-126.442323
 21
-2.051480
 31
0.0
  0
LINE
  5
151
100
AcDbEntity
  8
Ebene_1
 62
7
100
AcDbLine
 10
-126.442323
 20
-2.051480
 30
0.0
 11
-128.375624
 21
-3.640392
 31
0.0
  0
LINE
  5
152
100
AcDbEntity
  8
Ebene_1
 62
7
100
AcDbLine
 10
-128.375624
 20
-3.640392
 30
0.0
 11
-129.611428
 21
-5.055739
 31
0.0
  0
LINE
  5
153
100
AcDbEntity
  8
Ebene_1
 62
7
100
AcDbLine
 10
-129.611428
 20
-5.055739
 30
0.0
 11
-129.994366
 21
-5.738166
 31
0.0
  0
LINE
  5
154
100
AcDbEntity
  8
Ebene_1
 62
7
100
AcDbLine
 10
-129.994366
 20
-5.738166
 30
0.0
 11
-130.234851
 21
-6.425011
 31
0.0
  0
LINE
  5
155
100
AcDbEntity
  8
Ebene_1
 62
7
100
AcDbLine
 10
-130.234851
 20
-6.425011
 30
0.0
 11
-130.331018
 21
-7.875695
 31
0.0
  0
LINE
  5
156
100
AcDbEntity
  8
Ebene_1
 62
7
100
AcDbLine
 10
-130.331018
 20
-7.875695
 30
0.0
 11
-130.028786
 21
-9.219434
 31
0.0
  0
LINE
  5
157
100
AcDbEntity
  8
Ebene_1
 62
7
100
AcDbLine
 10
-130.028786
 20
-9.219434
 30
0.0
 11
-129.385387
 21
-10.420764
 31
0.0
  0
LINE
  5
158
100
AcDbEntity
  8
Ebene_1
 62
7
100
AcDbLine
 10
-129.385387
 20
-10.420764
 30
0.0
 11
-128.412308
 21
-11.463733
 31
0.0
  0
LINE
  5
159
100
AcDbEntity
  8
Ebene_1
 62
7
100
AcDbLine
 10
-128.412308
 20
-11.463733
 30
0.0
 11
-127.121031
 21
-12.332399
 31
0.0
  0
LINE
  5
15a
100
AcDbEntity
  8
Ebene_1
 62
7
100
AcDbLine
 10
-127.121031
 20
-12.332399
 30
0.0
 11
-126.160996
 21
-12.847542
 31
0.0
  0
LINE
  5
15b
100
AcDbEntity
  8
Ebene_1
 62
7
100
AcDbLine
 10
-126.160996
 20
-12.847542
 30
0.0
 11
-127.513072
 21
-13.794964
 31
0.0
  0
LINE
  5
15c
100
AcDbEntity
  8
Ebene_1
 62
7
100
AcDbLine
 10
-127.513072
 20
-13.794964
 30
0.0
 11
-128.915547
 21
-14.926345
 31
0.0
  0
LINE
  5
15d
100
AcDbEntity
  8
Ebene_1
 62
7
100
AcDbLine
 10
-128.915547
 20
-14.926345
 30
0.0
 11
-129.940372
 21
-16.116711
 31
0.0
  0
LINE
  5
15e
100
AcDbEntity
  8
Ebene_1
 62
7
100
AcDbLine
 10
-129.940372
 20
-16.116711
 30
0.0
 11
-130.639625
 21
-17.442057
 31
0.0
  0
LINE
  5
15f
100
AcDbEntity
  8
Ebene_1
 62
7
100
AcDbLine
 10
-130.639625
 20
-17.442057
 30
0.0
 11
-131.065391
 21
-18.978371
 31
0.0
  0
LINE
  5
160
100
AcDbEntity
  8
Ebene_1
 62
7
100
AcDbLine
 10
-131.065391
 20
-18.978371
 30
0.0
 11
-131.171981
 21
-20.630596
 31
0.0
  0
LINE
  5
161
100
AcDbEntity
  8
Ebene_1
 62
7
100
AcDbLine
 10
-131.171981
 20
-20.630596
 30
0.0
 11
-130.883598
 21
-22.194558
 31
0.0
  0
LINE
  5
162
100
AcDbEntity
  8
Ebene_1
 62
7
100
AcDbLine
 10
-130.883598
 20
-22.194558
 30
0.0
 11
-130.214853
 21
-23.624541
 31
0.0
  0
LINE
  5
163
100
AcDbEntity
  8
Ebene_1
 62
7
100
AcDbLine
 10
-130.214853
 20
-23.624541
 30
0.0
 11
-129.180364
 21
-24.874828
 31
0.0
  0
LINE
  5
164
100
AcDbEntity
  8
Ebene_1
 62
7
100
AcDbLine
 10
-129.180364
 20
-24.874828
 30
0.0
 11
-127.980920
 21
-25.779043
 31
0.0
  0
LINE
  5
165
100
AcDbEntity
  8
Ebene_1
 62
7
100
AcDbLine
 10
-127.980920
 20
-25.779043
 30
0.0
 11
-126.483316
 21
-26.512426
 31
0.0
  0
LINE
  5
166
100
AcDbEntity
  8
Ebene_1
 62
7
100
AcDbLine
 10
-126.483316
 20
-26.512426
 30
0.0
 11
-124.700868
 21
-27.069735
 31
0.0
  0
LINE
  5
167
100
AcDbEntity
  8
Ebene_1
 62
7
100
AcDbLine
 10
-124.700868
 20
-27.069735
 30
0.0
 11
-122.646900
 21
-27.445734
 31
0.0
  0
LINE
  5
168
100
AcDbEntity
  8
Ebene_1
 62
7
100
AcDbLine
 10
-122.646900
 20
-27.445734
 30
0.0
 11
-120.580206
 21
-27.590565
 31
0.0
  0
LINE
  5
169
100
AcDbEntity
  8
Ebene_1
 62
7
100
AcDbLine
 10
-120.580206
 20
-27.590565
 30
0.0
 11
-117.994676
 21
-27.608853
 31
0.0
  0
LINE
  5
16a
100
AcDbEntity
  8
Ebene_1
 62
7
100
AcDbLine
 10
-117.994676
 20
-27.608853
 30
0.0
 11
-115.434934
 21
-27.509189
 31
0.0
  0
LINE
  5
16b
100
AcDbEntity
  8
Ebene_1
 62
7
100
AcDbLine
 10
-115.434934
 20
-27.509189
 30
0.0
 11
-113.445615
 21
-27.300198
 31
0.0
  0
LINE
  5
16c
100
AcDbEntity
  8
Ebene_1
 62
7
100
AcDbLine
 10
-113.445615
 20
-27.300198
 30
0.0
 11
-113.445615
 21
-27.300198
 31
0.0
  0
LINE
  5
16d
100
AcDbEntity
  8
Ebene_1
 62
7
100
AcDbLine
 10
-119.677987
 20
-20.936821
 30
0.0
 11
-120.816285
 21
-20.718011
 31
0.0
  0
LINE
  5
16e
100
AcDbEntity
  8
Ebene_1
 62
7
100
AcDbLine
 10
-120.816285
 20
-20.718011
 30
0.0
 11
-121.737103
 21
-20.384103
 31
0.0
  0
LINE
  5
16f
100
AcDbEntity
  8
Ebene_1
 62
7
100
AcDbLine
 10
-121.737103
 20
-20.384103
 30
0.0
 11
-122.422090
 21
-19.943935
 31
0.0
  0
LINE
  5
170
100
AcDbEntity
  8
Ebene_1
 62
7
100
AcDbLine
 10
-122.422090
 20
-19.943935
 30
0.0
 11
-122.852891
 21
-19.406358
 31
0.0
  0
LINE
  5
171
100
AcDbEntity
  8
Ebene_1
 62
7
100
AcDbLine
 10
-122.852891
 20
-19.406358
 30
0.0
 11
-123.075926
 21
-18.773057
 31
0.0
  0
LINE
  5
172
100
AcDbEntity
  8
Ebene_1
 62
7
100
AcDbLine
 10
-123.075926
 20
-18.773057
 30
0.0
 11
-123.166443
 21
-18.054776
 31
0.0
  0
LINE
  5
173
100
AcDbEntity
  8
Ebene_1
 62
7
100
AcDbLine
 10
-123.166443
 20
-18.054776
 30
0.0
 11
-123.122018
 21
-17.327517
 31
0.0
  0
LINE
  5
174
100
AcDbEntity
  8
Ebene_1
 62
7
100
AcDbLine
 10
-123.122018
 20
-17.327517
 30
0.0
 11
-122.940231
 21
-16.667278
 31
0.0
  0
LINE
  5
175
100
AcDbEntity
  8
Ebene_1
 62
7
100
AcDbLine
 10
-122.940231
 20
-16.667278
 30
0.0
 11
-122.038900
 21
-15.388936
 31
0.0
  0
LINE
  5
176
100
AcDbEntity
  8
Ebene_1
 62
7
100
AcDbLine
 10
-122.038900
 20
-15.388936
 30
0.0
 11
-120.708832
 21
-14.186689
 31
0.0
  0
LINE
  5
177
100
AcDbEntity
  8
Ebene_1
 62
7
100
AcDbLine
 10
-120.708832
 20
-14.186689
 30
0.0
 11
-120.280467
 21
-13.944649
 31
0.0
  0
LINE
  5
178
100
AcDbEntity
  8
Ebene_1
 62
7
100
AcDbLine
 10
-120.280467
 20
-13.944649
 30
0.0
 11
-119.671256
 21
-13.791914
 31
0.0
  0
LINE
  5
179
100
AcDbEntity
  8
Ebene_1
 62
7
100
AcDbLine
 10
-119.671256
 20
-13.791914
 30
0.0
 11
-116.639405
 21
-13.558025
 31
0.0
  0
LINE
  5
17a
100
AcDbEntity
  8
Ebene_1
 62
7
100
AcDbLine
 10
-116.639405
 20
-13.558025
 30
0.0
 11
-110.988969
 21
-13.426066
 31
0.0
  0
LINE
  5
17b
100
AcDbEntity
  8
Ebene_1
 62
7
100
AcDbLine
 10
-110.988969
 20
-13.426066
 30
0.0
 11
-109.383726
 21
-13.519434
 31
0.0
  0
LINE
  5
17c
100
AcDbEntity
  8
Ebene_1
 62
7
100
AcDbLine
 10
-109.383726
 20
-13.519434
 30
0.0
 11
-108.504064
 21
-13.759630
 31
0.0
  0
LINE
  5
17d
100
AcDbEntity
  8
Ebene_1
 62
7
100
AcDbLine
 10
-108.504064
 20
-13.759630
 30
0.0
 11
-108.268951
 21
-13.975671
 31
0.0
  0
LINE
  5
17e
100
AcDbEntity
  8
Ebene_1
 62
7
100
AcDbLine
 10
-108.268951
 20
-13.975671
 30
0.0
 11
-108.134379
 21
-14.277477
 31
0.0
  0
LINE
  5
17f
100
AcDbEntity
  8
Ebene_1
 62
7
100
AcDbLine
 10
-108.134379
 20
-14.277477
 30
0.0
 11
-108.059062
 21
-15.203787
 31
0.0
  0
LINE
  5
180
100
AcDbEntity
  8
Ebene_1
 62
7
100
AcDbLine
 10
-108.059062
 20
-15.203787
 30
0.0
 11
-108.163964
 21
-16.108453
 31
0.0
  0
LINE
  5
181
100
AcDbEntity
  8
Ebene_1
 62
7
100
AcDbLine
 10
-108.163964
 20
-16.108453
 30
0.0
 11
-108.468905
 21
-16.978925
 31
0.0
  0
LINE
  5
182
100
AcDbEntity
  8
Ebene_1
 62
7
100
AcDbLine
 10
-108.468905
 20
-16.978925
 30
0.0
 11
-108.959249
 21
-17.800928
 31
0.0
  0
LINE
  5
183
100
AcDbEntity
  8
Ebene_1
 62
7
100
AcDbLine
 10
-108.959249
 20
-17.800928
 30
0.0
 11
-109.620346
 21
-18.560182
 31
0.0
  0
LINE
  5
184
100
AcDbEntity
  8
Ebene_1
 62
7
100
AcDbLine
 10
-109.620346
 20
-18.560182
 30
0.0
 11
-110.437557
 21
-19.242412
 31
0.0
  0
LINE
  5
185
100
AcDbEntity
  8
Ebene_1
 62
7
100
AcDbLine
 10
-110.437557
 20
-19.242412
 30
0.0
 11
-111.396241
 21
-19.833337
 31
0.0
  0
LINE
  5
186
100
AcDbEntity
  8
Ebene_1
 62
7
100
AcDbLine
 10
-111.396241
 20
-19.833337
 30
0.0
 11
-112.481749
 21
-20.318681
 31
0.0
  0
LINE
  5
187
100
AcDbEntity
  8
Ebene_1
 62
7
100
AcDbLine
 10
-112.481749
 20
-20.318681
 30
0.0
 11
-113.679447
 21
-20.684164
 31
0.0
  0
LINE
  5
188
100
AcDbEntity
  8
Ebene_1
 62
7
100
AcDbLine
 10
-113.679447
 20
-20.684164
 30
0.0
 11
-114.945558
 21
-20.880416
 31
0.0
  0
LINE
  5
189
100
AcDbEntity
  8
Ebene_1
 62
7
100
AcDbLine
 10
-114.945558
 20
-20.880416
 30
0.0
 11
-116.596688
 21
-20.997603
 31
0.0
  0
LINE
  5
18a
100
AcDbEntity
  8
Ebene_1
 62
7
100
AcDbLine
 10
-116.596688
 20
-20.997603
 30
0.0
 11
-119.677987
 21
-20.936821
 31
0.0
  0
LINE
  5
18b
100
AcDbEntity
  8
Ebene_1
 62
7
100
AcDbLine
 10
-119.677987
 20
-20.936821
 30
0.0
 11
-119.677987
 21
-20.936821
 31
0.0
  0
LINE
  5
18c
100
AcDbEntity
  8
Ebene_1
 62
7
100
AcDbLine
 10
-118.543524
 20
4.327374
 30
0.0
 11
-119.373399
 21
4.728279
 31
0.0
  0
LINE
  5
18d
100
AcDbEntity
  8
Ebene_1
 62
7
100
AcDbLine
 10
-119.373399
 20
4.728279
 30
0.0
 11
-120.026111
 21
5.205449
 31
0.0
  0
LINE
  5
18e
100
AcDbEntity
  8
Ebene_1
 62
7
100
AcDbLine
 10
-120.026111
 20
5.205449
 30
0.0
 11
-120.551550
 21
5.804460
 31
0.0
  0
LINE
  5
18f
100
AcDbEntity
  8
Ebene_1
 62
7
100
AcDbLine
 10
-120.551550
 20
5.804460
 30
0.0
 11
-120.999606
 21
6.570880
 31
0.0
  0
LINE
  5
190
100
AcDbEntity
  8
Ebene_1
 62
7
100
AcDbLine
 10
-120.999606
 20
6.570880
 30
0.0
 11
-121.513100
 21
8.097660
 31
0.0
  0
LINE
  5
191
100
AcDbEntity
  8
Ebene_1
 62
7
100
AcDbLine
 10
-121.513100
 20
8.097660
 30
0.0
 11
-121.629246
 21
9.725574
 31
0.0
  0
LINE
  5
192
100
AcDbEntity
  8
Ebene_1
 62
7
100
AcDbLine
 10
-121.629246
 20
9.725574
 30
0.0
 11
-121.352016
 21
11.373907
 31
0.0
  0
LINE
  5
193
100
AcDbEntity
  8
Ebene_1
 62
7
100
AcDbLine
 10
-121.352016
 20
11.373907
 30
0.0
 11
-120.685377
 21
12.961937
 31
0.0
  0
LINE
  5
194
100
AcDbEntity
  8
Ebene_1
 62
7
100
AcDbLine
 10
-120.685377
 20
12.961937
 30
0.0
 11
-120.122755
 21
13.723048
 31
0.0
  0
LINE
  5
195
100
AcDbEntity
  8
Ebene_1
 62
7
100
AcDbLine
 10
-120.122755
 20
13.723048
 30
0.0
 11
-119.227919
 21
14.208203
 31
0.0
  0
LINE
  5
196
100
AcDbEntity
  8
Ebene_1
 62
7
100
AcDbLine
 10
-119.227919
 20
14.208203
 30
0.0
 11
-118.097870
 21
14.542162
 31
0.0
  0
LINE
  5
197
100
AcDbEntity
  8
Ebene_1
 62
7
100
AcDbLine
 10
-118.097870
 20
14.542162
 30
0.0
 11
-116.483562
 21
14.623382
 31
0.0
  0
LINE
  5
198
100
AcDbEntity
  8
Ebene_1
 62
7
100
AcDbLine
 10
-116.483562
 20
14.623382
 30
0.0
 11
-114.885780
 21
14.557365
 31
0.0
  0
LINE
  5
199
100
AcDbEntity
  8
Ebene_1
 62
7
100
AcDbLine
 10
-114.885780
 20
14.557365
 30
0.0
 11
-113.848817
 21
14.236560
 31
0.0
  0
LINE
  5
19a
100
AcDbEntity
  8
Ebene_1
 62
7
100
AcDbLine
 10
-113.848817
 20
14.236560
 30
0.0
 11
-112.693512
 21
13.504100
 31
0.0
  0
LINE
  5
19b
100
AcDbEntity
  8
Ebene_1
 62
7
100
AcDbLine
 10
-112.693512
 20
13.504100
 30
0.0
 11
-111.899655
 21
12.480091
 31
0.0
  0
LINE
  5
19c
100
AcDbEntity
  8
Ebene_1
 62
7
100
AcDbLine
 10
-111.899655
 20
12.480091
 30
0.0
 11
-111.441913
 21
11.116210
 31
0.0
  0
LINE
  5
19d
100
AcDbEntity
  8
Ebene_1
 62
7
100
AcDbLine
 10
-111.441913
 20
11.116210
 30
0.0
 11
-111.294963
 21
9.364132
 31
0.0
  0
LINE
  5
19e
100
AcDbEntity
  8
Ebene_1
 62
7
100
AcDbLine
 10
-111.294963
 20
9.364132
 30
0.0
 11
-111.420594
 21
7.641752
 31
0.0
  0
LINE
  5
19f
100
AcDbEntity
  8
Ebene_1
 62
7
100
AcDbLine
 10
-111.420594
 20
7.641752
 30
0.0
 11
-111.815666
 21
6.314021
 31
0.0
  0
LINE
  5
1a0
100
AcDbEntity
  8
Ebene_1
 62
7
100
AcDbLine
 10
-111.815666
 20
6.314021
 30
0.0
 11
-112.507435
 21
5.322769
 31
0.0
  0
LINE
  5
1a1
100
AcDbEntity
  8
Ebene_1
 62
7
100
AcDbLine
 10
-112.507435
 20
5.322769
 30
0.0
 11
-113.523158
 21
4.609839
 31
0.0
  0
LINE
  5
1a2
100
AcDbEntity
  8
Ebene_1
 62
7
100
AcDbLine
 10
-113.523158
 20
4.609839
 30
0.0
 11
-114.612925
 21
4.200278
 31
0.0
  0
LINE
  5
1a3
100
AcDbEntity
  8
Ebene_1
 62
7
100
AcDbLine
 10
-114.612925
 20
4.200278
 30
0.0
 11
-116.117457
 21
4.062858
 31
0.0
  0
LINE
  5
1a4
100
AcDbEntity
  8
Ebene_1
 62
7
100
AcDbLine
 10
-116.117457
 20
4.062858
 30
0.0
 11
-117.579287
 21
4.077534
 31
0.0
  0
LINE
  5
1a5
100
AcDbEntity
  8
Ebene_1
 62
7
100
AcDbLine
 10
-117.579287
 20
4.077534
 30
0.0
 11
-118.543524
 21
4.327380
 31
0.0
  0
LINE
  5
1a6
100
AcDbEntity
  8
Ebene_1
 62
7
100
AcDbLine
 10
-118.543524
 20
4.327380
 30
0.0
 11
-118.543524
 21
4.327380
 31
0.0
  0
LINE
  5
1a7
100
AcDbEntity
  8
Ebene_1
 62
7
100
AcDbLine
 10
-74.807394
 20
-10.801140
 30
0.0
 11
-72.764932
 21
-10.248131
 31
0.0
  0
LINE
  5
1a8
100
AcDbEntity
  8
Ebene_1
 62
7
100
AcDbLine
 10
-72.764932
 20
-10.248131
 30
0.0
 11
-70.686176
 21
-9.502858
 31
0.0
  0
LINE
  5
1a9
100
AcDbEntity
  8
Ebene_1
 62
7
100
AcDbLine
 10
-70.686176
 20
-9.502858
 30
0.0
 11
-68.871208
 21
-8.685732
 31
0.0
  0
LINE
  5
1aa
100
AcDbEntity
  8
Ebene_1
 62
7
100
AcDbLine
 10
-68.871208
 20
-8.685732
 30
0.0
 11
-67.620114
 21
-7.917167
 31
0.0
  0
LINE
  5
1ab
100
AcDbEntity
  8
Ebene_1
 62
7
100
AcDbLine
 10
-67.620114
 20
-7.917167
 30
0.0
 11
-67.211485
 21
-7.586109
 31
0.0
  0
LINE
  5
1ac
100
AcDbEntity
  8
Ebene_1
 62
7
100
AcDbLine
 10
-67.211485
 20
-7.586109
 30
0.0
 11
-67.550434
 21
-3.791824
 31
0.0
  0
LINE
  5
1ad
100
AcDbEntity
  8
Ebene_1
 62
7
100
AcDbLine
 10
-67.550434
 20
-3.791824
 30
0.0
 11
-68.060852
 21
0.173935
 31
0.0
  0
LINE
  5
1ae
100
AcDbEntity
  8
Ebene_1
 62
7
100
AcDbLine
 10
-68.060852
 20
0.173935
 30
0.0
 11
-68.509253
 21
0.074849
 31
0.0
  0
LINE
  5
1af
100
AcDbEntity
  8
Ebene_1
 62
7
100
AcDbLine
 10
-68.509253
 20
0.074849
 30
0.0
 11
-69.538621
 21
-0.591819
 31
0.0
  0
LINE
  5
1b0
100
AcDbEntity
  8
Ebene_1
 62
7
100
AcDbLine
 10
-69.538621
 20
-0.591819
 30
0.0
 11
-70.984677
 21
-1.521628
 31
0.0
  0
LINE
  5
1b1
100
AcDbEntity
  8
Ebene_1
 62
7
100
AcDbLine
 10
-70.984677
 20
-1.521628
 30
0.0
 11
-72.591800
 21
-2.377374
 31
0.0
  0
LINE
  5
1b2
100
AcDbEntity
  8
Ebene_1
 62
7
100
AcDbLine
 10
-72.591800
 20
-2.377374
 30
0.0
 11
-74.193688
 21
-3.078383
 31
0.0
  0
LINE
  5
1b3
100
AcDbEntity
  8
Ebene_1
 62
7
100
AcDbLine
 10
-74.193688
 20
-3.078383
 30
0.0
 11
-75.624032
 21
-3.543970
 31
0.0
  0
LINE
  5
1b4
100
AcDbEntity
  8
Ebene_1
 62
7
100
AcDbLine
 10
-75.624032
 20
-3.543970
 30
0.0
 11
-77.248509
 21
-3.812081
 31
0.0
  0
LINE
  5
1b5
100
AcDbEntity
  8
Ebene_1
 62
7
100
AcDbLine
 10
-77.248509
 20
-3.812081
 30
0.0
 11
-78.925936
 21
-3.856639
 31
0.0
  0
LINE
  5
1b6
100
AcDbEntity
  8
Ebene_1
 62
7
100
AcDbLine
 10
-78.925936
 20
-3.856639
 30
0.0
 11
-80.469023
 21
-3.685028
 31
0.0
  0
LINE
  5
1b7
100
AcDbEntity
  8
Ebene_1
 62
7
100
AcDbLine
 10
-80.469023
 20
-3.685028
 30
0.0
 11
-81.690487
 21
-3.304637
 31
0.0
  0
LINE
  5
1b8
100
AcDbEntity
  8
Ebene_1
 62
7
100
AcDbLine
 10
-81.690487
 20
-3.304637
 30
0.0
 11
-82.544734
 21
-2.816828
 31
0.0
  0
LINE
  5
1b9
100
AcDbEntity
  8
Ebene_1
 62
7
100
AcDbLine
 10
-82.544734
 20
-2.816828
 30
0.0
 11
-83.332506
 21
-2.215457
 31
0.0
  0
LINE
  5
1ba
100
AcDbEntity
  8
Ebene_1
 62
7
100
AcDbLine
 10
-83.332506
 20
-2.215457
 30
0.0
 11
-84.680261
 21
-0.712452
 31
0.0
  0
LINE
  5
1bb
100
AcDbEntity
  8
Ebene_1
 62
7
100
AcDbLine
 10
-84.680261
 20
-0.712452
 30
0.0
 11
-85.677014
 21
1.123565
 31
0.0
  0
LINE
  5
1bc
100
AcDbEntity
  8
Ebene_1
 62
7
100
AcDbLine
 10
-85.677014
 20
1.123565
 30
0.0
 11
-86.266017
 21
3.211786
 31
0.0
  0
LINE
  5
1bd
100
AcDbEntity
  8
Ebene_1
 62
7
100
AcDbLine
 10
-86.266017
 20
3.211786
 30
0.0
 11
-86.370874
 21
3.838088
 31
0.0
  0
LINE
  5
1be
100
AcDbEntity
  8
Ebene_1
 62
7
100
AcDbLine
 10
-86.370874
 20
3.838088
 30
0.0
 11
-76.613997
 21
3.881282
 31
0.0
  0
LINE
  5
1bf
100
AcDbEntity
  8
Ebene_1
 62
7
100
AcDbLine
 10
-76.613997
 20
3.881282
 30
0.0
 11
-66.857121
 21
3.924479
 31
0.0
  0
LINE
  5
1c0
100
AcDbEntity
  8
Ebene_1
 62
7
100
AcDbLine
 10
-66.857121
 20
3.924479
 30
0.0
 11
-66.874647
 21
6.435091
 31
0.0
  0
LINE
  5
1c1
100
AcDbEntity
  8
Ebene_1
 62
7
100
AcDbLine
 10
-66.874647
 20
6.435091
 30
0.0
 11
-66.963414
 21
8.690975
 31
0.0
  0
LINE
  5
1c2
100
AcDbEntity
  8
Ebene_1
 62
7
100
AcDbLine
 10
-66.963414
 20
8.690975
 30
0.0
 11
-67.171858
 21
10.518943
 31
0.0
  0
LINE
  5
1c3
100
AcDbEntity
  8
Ebene_1
 62
7
100
AcDbLine
 10
-67.171858
 20
10.518943
 30
0.0
 11
-67.720190
 21
12.893975
 31
0.0
  0
LINE
  5
1c4
100
AcDbEntity
  8
Ebene_1
 62
7
100
AcDbLine
 10
-67.720190
 20
12.893975
 30
0.0
 11
-68.470656
 21
14.936723
 31
0.0
  0
LINE
  5
1c5
100
AcDbEntity
  8
Ebene_1
 62
7
100
AcDbLine
 10
-68.470656
 20
14.936723
 30
0.0
 11
-69.439519
 21
16.662881
 31
0.0
  0
LINE
  5
1c6
100
AcDbEntity
  8
Ebene_1
 62
7
100
AcDbLine
 10
-69.439519
 20
16.662881
 30
0.0
 11
-70.643044
 21
18.088151
 31
0.0
  0
LINE
  5
1c7
100
AcDbEntity
  8
Ebene_1
 62
7
100
AcDbLine
 10
-70.643044
 20
18.088151
 30
0.0
 11
-72.097496
 21
19.228227
 31
0.0
  0
LINE
  5
1c8
100
AcDbEntity
  8
Ebene_1
 62
7
100
AcDbLine
 10
-72.097496
 20
19.228227
 30
0.0
 11
-73.819142
 21
20.098812
 31
0.0
  0
LINE
  5
1c9
100
AcDbEntity
  8
Ebene_1
 62
7
100
AcDbLine
 10
-73.819142
 20
20.098812
 30
0.0
 11
-75.824244
 21
20.715598
 31
0.0
  0
LINE
  5
1ca
100
AcDbEntity
  8
Ebene_1
 62
7
100
AcDbLine
 10
-75.824244
 20
20.715598
 30
0.0
 11
-78.129068
 21
21.094286
 31
0.0
  0
LINE
  5
1cb
100
AcDbEntity
  8
Ebene_1
 62
7
100
AcDbLine
 10
-78.129068
 20
21.094286
 30
0.0
 11
-79.891105
 21
21.201000
 31
0.0
  0
LINE
  5
1cc
100
AcDbEntity
  8
Ebene_1
 62
7
100
AcDbLine
 10
-79.891105
 20
21.201000
 30
0.0
 11
-81.613050
 21
21.141223
 31
0.0
  0
LINE
  5
1cd
100
AcDbEntity
  8
Ebene_1
 62
7
100
AcDbLine
 10
-81.613050
 20
21.141223
 30
0.0
 11
-83.280606
 21
20.919153
 31
0.0
  0
LINE
  5
1ce
100
AcDbEntity
  8
Ebene_1
 62
7
100
AcDbLine
 10
-83.280606
 20
20.919153
 30
0.0
 11
-84.879476
 21
20.538983
 31
0.0
  0
LINE
  5
1cf
100
AcDbEntity
  8
Ebene_1
 62
7
100
AcDbLine
 10
-84.879476
 20
20.538983
 30
0.0
 11
-86.395365
 21
20.004914
 31
0.0
  0
LINE
  5
1d0
100
AcDbEntity
  8
Ebene_1
 62
7
100
AcDbLine
 10
-86.395365
 20
20.004914
 30
0.0
 11
-87.813975
 21
19.321141
 31
0.0
  0
LINE
  5
1d1
100
AcDbEntity
  8
Ebene_1
 62
7
100
AcDbLine
 10
-87.813975
 20
19.321141
 30
0.0
 11
-89.121011
 21
18.491859
 31
0.0
  0
LINE
  5
1d2
100
AcDbEntity
  8
Ebene_1
 62
7
100
AcDbLine
 10
-89.121011
 20
18.491859
 30
0.0
 11
-90.302176
 21
17.521266
 31
0.0
  0
LINE
  5
1d3
100
AcDbEntity
  8
Ebene_1
 62
7
100
AcDbLine
 10
-90.302176
 20
17.521266
 30
0.0
 11
-91.496154
 21
16.287122
 31
0.0
  0
LINE
  5
1d4
100
AcDbEntity
  8
Ebene_1
 62
7
100
AcDbLine
 10
-91.496154
 20
16.287122
 30
0.0
 11
-92.519463
 21
14.970448
 31
0.0
  0
LINE
  5
1d5
100
AcDbEntity
  8
Ebene_1
 62
7
100
AcDbLine
 10
-92.519463
 20
14.970448
 30
0.0
 11
-93.375542
 21
13.562456
 31
0.0
  0
LINE
  5
1d6
100
AcDbEntity
  8
Ebene_1
 62
7
100
AcDbLine
 10
-93.375542
 20
13.562456
 30
0.0
 11
-94.067842
 21
12.054350
 31
0.0
  0
LINE
  5
1d7
100
AcDbEntity
  8
Ebene_1
 62
7
100
AcDbLine
 10
-94.067842
 20
12.054350
 30
0.0
 11
-94.599800
 21
10.437350
 31
0.0
  0
LINE
  5
1d8
100
AcDbEntity
  8
Ebene_1
 62
7
100
AcDbLine
 10
-94.599800
 20
10.437350
 30
0.0
 11
-94.974859
 21
8.702654
 31
0.0
  0
LINE
  5
1d9
100
AcDbEntity
  8
Ebene_1
 62
7
100
AcDbLine
 10
-94.974859
 20
8.702654
 30
0.0
 11
-95.196468
 21
6.841480
 31
0.0
  0
LINE
  5
1da
100
AcDbEntity
  8
Ebene_1
 62
7
100
AcDbLine
 10
-95.196468
 20
6.841480
 30
0.0
 11
-95.268068
 21
4.845037
 31
0.0
  0
LINE
  5
1db
100
AcDbEntity
  8
Ebene_1
 62
7
100
AcDbLine
 10
-95.268068
 20
4.845037
 30
0.0
 11
-95.191907
 21
2.990843
 31
0.0
  0
LINE
  5
1dc
100
AcDbEntity
  8
Ebene_1
 62
7
100
AcDbLine
 10
-95.191907
 20
2.990843
 30
0.0
 11
-94.967600
 21
1.232113
 31
0.0
  0
LINE
  5
1dd
100
AcDbEntity
  8
Ebene_1
 62
7
100
AcDbLine
 10
-94.967600
 20
1.232113
 30
0.0
 11
-94.595188
 21
-0.431051
 31
0.0
  0
LINE
  5
1de
100
AcDbEntity
  8
Ebene_1
 62
7
100
AcDbLine
 10
-94.595188
 20
-0.431051
 30
0.0
 11
-94.074705
 21
-1.998550
 31
0.0
  0
LINE
  5
1df
100
AcDbEntity
  8
Ebene_1
 62
7
100
AcDbLine
 10
-94.074705
 20
-1.998550
 30
0.0
 11
-93.406197
 21
-3.470285
 31
0.0
  0
LINE
  5
1e0
100
AcDbEntity
  8
Ebene_1
 62
7
100
AcDbLine
 10
-93.406197
 20
-3.470285
 30
0.0
 11
-92.589700
 21
-4.846155
 31
0.0
  0
LINE
  5
1e1
100
AcDbEntity
  8
Ebene_1
 62
7
100
AcDbLine
 10
-92.589700
 20
-4.846155
 30
0.0
 11
-91.625253
 21
-6.126061
 31
0.0
  0
LINE
  5
1e2
100
AcDbEntity
  8
Ebene_1
 62
7
100
AcDbLine
 10
-91.625253
 20
-6.126061
 30
0.0
 11
-90.512897
 21
-7.309899
 31
0.0
  0
LINE
  5
1e3
100
AcDbEntity
  8
Ebene_1
 62
7
100
AcDbLine
 10
-90.512897
 20
-7.309899
 30
0.0
 11
-88.843245
 21
-8.687521
 31
0.0
  0
LINE
  5
1e4
100
AcDbEntity
  8
Ebene_1
 62
7
100
AcDbLine
 10
-88.843245
 20
-8.687521
 30
0.0
 11
-87.006958
 21
-9.756562
 31
0.0
  0
LINE
  5
1e5
100
AcDbEntity
  8
Ebene_1
 62
7
100
AcDbLine
 10
-87.006958
 20
-9.756562
 30
0.0
 11
-84.922064
 21
-10.556086
 31
0.0
  0
LINE
  5
1e6
100
AcDbEntity
  8
Ebene_1
 62
7
100
AcDbLine
 10
-84.922064
 20
-10.556086
 30
0.0
 11
-82.506603
 21
-11.125148
 31
0.0
  0
LINE
  5
1e7
100
AcDbEntity
  8
Ebene_1
 62
7
100
AcDbLine
 10
-82.506603
 20
-11.125148
 30
0.0
 11
-81.070125
 21
-11.183844
 31
0.0
  0
LINE
  5
1e8
100
AcDbEntity
  8
Ebene_1
 62
7
100
AcDbLine
 10
-81.070125
 20
-11.183844
 30
0.0
 11
-78.752948
 21
-11.126045
 31
0.0
  0
LINE
  5
1e9
100
AcDbEntity
  8
Ebene_1
 62
7
100
AcDbLine
 10
-78.752948
 20
-11.126045
 30
0.0
 11
-74.807391
 21
-10.801140
 31
0.0
  0
LINE
  5
1ea
100
AcDbEntity
  8
Ebene_1
 62
7
100
AcDbLine
 10
-74.807391
 20
-10.801140
 30
0.0
 11
-74.807394
 21
-10.801140
 31
0.0
  0
LINE
  5
1eb
100
AcDbEntity
  8
Ebene_1
 62
7
100
AcDbLine
 10
-85.947992
 20
9.824417
 30
0.0
 11
-85.165071
 21
11.683174
 31
0.0
  0
LINE
  5
1ec
100
AcDbEntity
  8
Ebene_1
 62
7
100
AcDbLine
 10
-85.165071
 20
11.683174
 30
0.0
 11
-84.077974
 21
13.332467
 31
0.0
  0
LINE
  5
1ed
100
AcDbEntity
  8
Ebene_1
 62
7
100
AcDbLine
 10
-84.077974
 20
13.332467
 30
0.0
 11
-83.239762
 21
13.985972
 31
0.0
  0
LINE
  5
1ee
100
AcDbEntity
  8
Ebene_1
 62
7
100
AcDbLine
 10
-83.239762
 20
13.985972
 30
0.0
 11
-82.168357
 21
14.428056
 31
0.0
  0
LINE
  5
1ef
100
AcDbEntity
  8
Ebene_1
 62
7
100
AcDbLine
 10
-82.168357
 20
14.428056
 30
0.0
 11
-80.859020
 21
14.660063
 31
0.0
  0
LINE
  5
1f0
100
AcDbEntity
  8
Ebene_1
 62
7
100
AcDbLine
 10
-80.859020
 20
14.660063
 30
0.0
 11
-79.307015
 21
14.683318
 31
0.0
  0
LINE
  5
1f1
100
AcDbEntity
  8
Ebene_1
 62
7
100
AcDbLine
 10
-79.307015
 20
14.683318
 30
0.0
 11
-77.404121
 21
14.401638
 31
0.0
  0
LINE
  5
1f2
100
AcDbEntity
  8
Ebene_1
 62
7
100
AcDbLine
 10
-77.404121
 20
14.401638
 30
0.0
 11
-76.661947
 21
14.117200
 31
0.0
  0
LINE
  5
1f3
100
AcDbEntity
  8
Ebene_1
 62
7
100
AcDbLine
 10
-76.661947
 20
14.117200
 30
0.0
 11
-76.046169
 21
13.726497
 31
0.0
  0
LINE
  5
1f4
100
AcDbEntity
  8
Ebene_1
 62
7
100
AcDbLine
 10
-76.046169
 20
13.726497
 30
0.0
 11
-75.546960
 21
13.221627
 31
0.0
  0
LINE
  5
1f5
100
AcDbEntity
  8
Ebene_1
 62
7
100
AcDbLine
 10
-75.546960
 20
13.221627
 30
0.0
 11
-75.154477
 21
12.594693
 31
0.0
  0
LINE
  5
1f6
100
AcDbEntity
  8
Ebene_1
 62
7
100
AcDbLine
 10
-75.154477
 20
12.594693
 30
0.0
 11
-74.650360
 21
10.943024
 31
0.0
  0
LINE
  5
1f7
100
AcDbEntity
  8
Ebene_1
 62
7
100
AcDbLine
 10
-74.650360
 20
10.943024
 30
0.0
 11
-74.472645
 21
9.643320
 31
0.0
  0
LINE
  5
1f8
100
AcDbEntity
  8
Ebene_1
 62
7
100
AcDbLine
 10
-74.472645
 20
9.643320
 30
0.0
 11
-74.632874
 21
9.491990
 31
0.0
  0
LINE
  5
1f9
100
AcDbEntity
  8
Ebene_1
 62
7
100
AcDbLine
 10
-74.632874
 20
9.491990
 30
0.0
 11
-75.382634
 21
9.407984
 31
0.0
  0
LINE
  5
1fa
100
AcDbEntity
  8
Ebene_1
 62
7
100
AcDbLine
 10
-75.382634
 20
9.407984
 30
0.0
 11
-80.265199
 21
9.364123
 31
0.0
  0
LINE
  5
1fb
100
AcDbEntity
  8
Ebene_1
 62
7
100
AcDbLine
 10
-80.265199
 20
9.364123
 30
0.0
 11
-86.057754
 21
9.364123
 31
0.0
  0
LINE
  5
1fc
100
AcDbEntity
  8
Ebene_1
 62
7
100
AcDbLine
 10
-86.057754
 20
9.364123
 30
0.0
 11
-85.947992
 21
9.824402
 31
0.0
  0
LINE
  5
1fd
100
AcDbEntity
  8
Ebene_1
 62
7
100
AcDbLine
 10
137.279058
 20
-10.686216
 30
0.0
 11
138.386950
 21
-10.039188
 31
0.0
  0
LINE
  5
1fe
100
AcDbEntity
  8
Ebene_1
 62
7
100
AcDbLine
 10
138.386950
 20
-10.039188
 30
0.0
 11
139.322234
 21
-9.210863
 31
0.0
  0
LINE
  5
1ff
100
AcDbEntity
  8
Ebene_1
 62
7
100
AcDbLine
 10
139.322234
 20
-9.210863
 30
0.0
 11
140.070998
 21
-8.236598
 31
0.0
  0
LINE
  5
200
100
AcDbEntity
  8
Ebene_1
 62
7
100
AcDbLine
 10
140.070998
 20
-8.236598
 30
0.0
 11
140.619356
 21
-7.151750
 31
0.0
  0
LINE
  5
201
100
AcDbEntity
  8
Ebene_1
 62
7
100
AcDbLine
 10
140.619356
 20
-7.151750
 30
0.0
 11
140.953450
 21
-5.991672
 31
0.0
  0
LINE
  5
202
100
AcDbEntity
  8
Ebene_1
 62
7
100
AcDbLine
 10
140.953450
 20
-5.991672
 30
0.0
 11
141.059312
 21
-4.791723
 31
0.0
  0
LINE
  5
203
100
AcDbEntity
  8
Ebene_1
 62
7
100
AcDbLine
 10
141.059312
 20
-4.791723
 30
0.0
 11
140.923083
 21
-3.587260
 31
0.0
  0
LINE
  5
204
100
AcDbEntity
  8
Ebene_1
 62
7
100
AcDbLine
 10
140.923083
 20
-3.587260
 30
0.0
 11
140.530851
 21
-2.413634
 31
0.0
  0
LINE
  5
205
100
AcDbEntity
  8
Ebene_1
 62
7
100
AcDbLine
 10
140.530851
 20
-2.413634
 30
0.0
 11
139.989069
 21
-1.484640
 31
0.0
  0
LINE
  5
206
100
AcDbEntity
  8
Ebene_1
 62
7
100
AcDbLine
 10
139.989069
 20
-1.484640
 30
0.0
 11
139.262403
 21
-0.623419
 31
0.0
  0
LINE
  5
207
100
AcDbEntity
  8
Ebene_1
 62
7
100
AcDbLine
 10
139.262403
 20
-0.623419
 30
0.0
 11
138.398267
 21
0.122093
 31
0.0
  0
LINE
  5
208
100
AcDbEntity
  8
Ebene_1
 62
7
100
AcDbLine
 10
138.398267
 20
0.122093
 30
0.0
 11
137.444130
 21
0.703971
 31
0.0
  0
LINE
  5
209
100
AcDbEntity
  8
Ebene_1
 62
7
100
AcDbLine
 10
137.444130
 20
0.703971
 30
0.0
 11
136.276407
 21
1.159060
 31
0.0
  0
LINE
  5
20a
100
AcDbEntity
  8
Ebene_1
 62
7
100
AcDbLine
 10
136.276407
 20
1.159060
 30
0.0
 11
134.832248
 21
1.246478
 31
0.0
  0
LINE
  5
20b
100
AcDbEntity
  8
Ebene_1
 62
7
100
AcDbLine
 10
134.832248
 20
1.246478
 30
0.0
 11
133.486020
 21
1.144449
 31
0.0
  0
LINE
  5
20c
100
AcDbEntity
  8
Ebene_1
 62
7
100
AcDbLine
 10
133.486020
 20
1.144449
 30
0.0
 11
132.343133
 21
0.812739
 31
0.0
  0
LINE
  5
20d
100
AcDbEntity
  8
Ebene_1
 62
7
100
AcDbLine
 10
132.343133
 20
0.812739
 30
0.0
 11
131.313925
 21
0.212896
 31
0.0
  0
LINE
  5
20e
100
AcDbEntity
  8
Ebene_1
 62
7
100
AcDbLine
 10
131.313925
 20
0.212896
 30
0.0
 11
130.308762
 21
-0.693526
 31
0.0
  0
LINE
  5
20f
100
AcDbEntity
  8
Ebene_1
 62
7
100
AcDbLine
 10
130.308762
 20
-0.693526
 30
0.0
 11
129.478238
 21
-1.666789
 31
0.0
  0
LINE
  5
210
100
AcDbEntity
  8
Ebene_1
 62
7
100
AcDbLine
 10
129.478238
 20
-1.666789
 30
0.0
 11
128.967614
 21
-2.574495
 31
0.0
  0
LINE
  5
211
100
AcDbEntity
  8
Ebene_1
 62
7
100
AcDbLine
 10
128.967614
 20
-2.574495
 30
0.0
 11
128.709776
 21
-3.584001
 31
0.0
  0
LINE
  5
212
100
AcDbEntity
  8
Ebene_1
 62
7
100
AcDbLine
 10
128.709776
 20
-3.584001
 30
0.0
 11
128.637668
 21
-4.862679
 31
0.0
  0
LINE
  5
213
100
AcDbEntity
  8
Ebene_1
 62
7
100
AcDbLine
 10
128.637668
 20
-4.862679
 30
0.0
 11
128.714460
 21
-6.340124
 31
0.0
  0
LINE
  5
214
100
AcDbEntity
  8
Ebene_1
 62
7
100
AcDbLine
 10
128.714460
 20
-6.340124
 30
0.0
 11
129.081180
 21
-7.402606
 31
0.0
  0
LINE
  5
215
100
AcDbEntity
  8
Ebene_1
 62
7
100
AcDbLine
 10
129.081180
 20
-7.402606
 30
0.0
 11
129.798786
 21
-8.590152
 31
0.0
  0
LINE
  5
216
100
AcDbEntity
  8
Ebene_1
 62
7
100
AcDbLine
 10
129.798786
 20
-8.590152
 30
0.0
 11
130.742114
 21
-9.611551
 31
0.0
  0
LINE
  5
217
100
AcDbEntity
  8
Ebene_1
 62
7
100
AcDbLine
 10
130.742114
 20
-9.611551
 30
0.0
 11
131.864484
 21
-10.425321
 31
0.0
  0
LINE
  5
218
100
AcDbEntity
  8
Ebene_1
 62
7
100
AcDbLine
 10
131.864484
 20
-10.425321
 30
0.0
 11
133.119187
 21
-10.989980
 31
0.0
  0
LINE
  5
219
100
AcDbEntity
  8
Ebene_1
 62
7
100
AcDbLine
 10
133.119187
 20
-10.989980
 30
0.0
 11
134.070361
 21
-11.165952
 31
0.0
  0
LINE
  5
21a
100
AcDbEntity
  8
Ebene_1
 62
7
100
AcDbLine
 10
134.070361
 20
-11.165952
 30
0.0
 11
135.183389
 21
-11.166516
 31
0.0
  0
LINE
  5
21b
100
AcDbEntity
  8
Ebene_1
 62
7
100
AcDbLine
 10
135.183389
 20
-11.166516
 30
0.0
 11
136.304263
 21
-11.002855
 31
0.0
  0
LINE
  5
21c
100
AcDbEntity
  8
Ebene_1
 62
7
100
AcDbLine
 10
136.304263
 20
-11.002855
 30
0.0
 11
137.279058
 21
-10.686247
 31
0.0
  0
LINE
  5
21d
100
AcDbEntity
  8
Ebene_1
 62
7
100
AcDbLine
 10
137.279058
 20
-10.686247
 30
0.0
 11
137.279058
 21
-10.686247
 31
0.0
  0
LINE
  5
21e
100
AcDbEntity
  8
Ebene_1
 62
7
100
AcDbLine
 10
-46.049520
 20
-10.568592
 30
0.0
 11
-44.232226
 21
-9.988693
 31
0.0
  0
LINE
  5
21f
100
AcDbEntity
  8
Ebene_1
 62
7
100
AcDbLine
 10
-44.232226
 20
-9.988693
 30
0.0
 11
-42.612728
 21
-9.220966
 31
0.0
  0
LINE
  5
220
100
AcDbEntity
  8
Ebene_1
 62
7
100
AcDbLine
 10
-42.612728
 20
-9.220966
 30
0.0
 11
-41.204744
 21
-8.280506
 31
0.0
  0
LINE
  5
221
100
AcDbEntity
  8
Ebene_1
 62
7
100
AcDbLine
 10
-41.204744
 20
-8.280506
 30
0.0
 11
-40.021995
 21
-7.182393
 31
0.0
  0
LINE
  5
222
100
AcDbEntity
  8
Ebene_1
 62
7
100
AcDbLine
 10
-40.021995
 20
-7.182393
 30
0.0
 11
-39.078196
 21
-5.941725
 31
0.0
  0
LINE
  5
223
100
AcDbEntity
  8
Ebene_1
 62
7
100
AcDbLine
 10
-39.078196
 20
-5.941725
 30
0.0
 11
-38.387068
 21
-4.573579
 31
0.0
  0
LINE
  5
224
100
AcDbEntity
  8
Ebene_1
 62
7
100
AcDbLine
 10
-38.387068
 20
-4.573579
 30
0.0
 11
-37.962332
 21
-3.093053
 31
0.0
  0
LINE
  5
225
100
AcDbEntity
  8
Ebene_1
 62
7
100
AcDbLine
 10
-37.962332
 20
-3.093053
 30
0.0
 11
-37.817704
 21
-1.515227
 31
0.0
  0
LINE
  5
226
100
AcDbEntity
  8
Ebene_1
 62
7
100
AcDbLine
 10
-37.817704
 20
-1.515227
 30
0.0
 11
-37.968106
 21
0.115168
 31
0.0
  0
LINE
  5
227
100
AcDbEntity
  8
Ebene_1
 62
7
100
AcDbLine
 10
-37.968106
 20
0.115168
 30
0.0
 11
-38.422408
 21
1.613508
 31
0.0
  0
LINE
  5
228
100
AcDbEntity
  8
Ebene_1
 62
7
100
AcDbLine
 10
-38.422408
 20
1.613508
 30
0.0
 11
-39.185243
 21
2.990747
 31
0.0
  0
LINE
  5
229
100
AcDbEntity
  8
Ebene_1
 62
7
100
AcDbLine
 10
-39.185243
 20
2.990747
 30
0.0
 11
-40.261249
 21
4.257837
 31
0.0
  0
LINE
  5
22a
100
AcDbEntity
  8
Ebene_1
 62
7
100
AcDbLine
 10
-40.261249
 20
4.257837
 30
0.0
 11
-41.435435
 21
5.261846
 31
0.0
  0
LINE
  5
22b
100
AcDbEntity
  8
Ebene_1
 62
7
100
AcDbLine
 10
-41.435435
 20
5.261846
 30
0.0
 11
-42.901678
 21
6.200686
 31
0.0
  0
LINE
  5
22c
100
AcDbEntity
  8
Ebene_1
 62
7
100
AcDbLine
 10
-42.901678
 20
6.200686
 30
0.0
 11
-44.828960
 21
7.169343
 31
0.0
  0
LINE
  5
22d
100
AcDbEntity
  8
Ebene_1
 62
7
100
AcDbLine
 10
-44.828960
 20
7.169343
 30
0.0
 11
-47.386251
 21
8.262796
 31
0.0
  0
LINE
  5
22e
100
AcDbEntity
  8
Ebene_1
 62
7
100
AcDbLine
 10
-47.386251
 20
8.262796
 30
0.0
 11
-51.495889
 21
10.006515
 31
0.0
  0
LINE
  5
22f
100
AcDbEntity
  8
Ebene_1
 62
7
100
AcDbLine
 10
-51.495889
 20
10.006515
 30
0.0
 11
-52.249386
 21
10.461392
 31
0.0
  0
LINE
  5
230
100
AcDbEntity
  8
Ebene_1
 62
7
100
AcDbLine
 10
-52.249386
 20
10.461392
 30
0.0
 11
-52.862367
 21
10.970628
 31
0.0
  0
LINE
  5
231
100
AcDbEntity
  8
Ebene_1
 62
7
100
AcDbLine
 10
-52.862367
 20
10.970628
 30
0.0
 11
-53.312404
 21
11.512057
 31
0.0
  0
LINE
  5
232
100
AcDbEntity
  8
Ebene_1
 62
7
100
AcDbLine
 10
-53.312404
 20
11.512057
 30
0.0
 11
-53.577072
 21
12.063517
 31
0.0
  0
LINE
  5
233
100
AcDbEntity
  8
Ebene_1
 62
7
100
AcDbLine
 10
-53.577072
 20
12.063517
 30
0.0
 11
-53.685197
 21
12.688645
 31
0.0
  0
LINE
  5
234
100
AcDbEntity
  8
Ebene_1
 62
7
100
AcDbLine
 10
-53.685197
 20
12.688645
 30
0.0
 11
-53.442808
 21
13.177770
 31
0.0
  0
LINE
  5
235
100
AcDbEntity
  8
Ebene_1
 62
7
100
AcDbLine
 10
-53.442808
 20
13.177770
 30
0.0
 11
-52.911776
 21
13.723746
 31
0.0
  0
LINE
  5
236
100
AcDbEntity
  8
Ebene_1
 62
7
100
AcDbLine
 10
-52.911776
 20
13.723746
 30
0.0
 11
-52.187625
 21
14.073568
 31
0.0
  0
LINE
  5
237
100
AcDbEntity
  8
Ebene_1
 62
7
100
AcDbLine
 10
-52.187625
 20
14.073568
 30
0.0
 11
-51.130835
 21
14.270040
 31
0.0
  0
LINE
  5
238
100
AcDbEntity
  8
Ebene_1
 62
7
100
AcDbLine
 10
-51.130835
 20
14.270040
 30
0.0
 11
-49.601871
 21
14.355957
 31
0.0
  0
LINE
  5
239
100
AcDbEntity
  8
Ebene_1
 62
7
100
AcDbLine
 10
-49.601871
 20
14.355957
 30
0.0
 11
-47.314237
 21
14.278270
 31
0.0
  0
LINE
  5
23a
100
AcDbEntity
  8
Ebene_1
 62
7
100
AcDbLine
 10
-47.314237
 20
14.278270
 30
0.0
 11
-45.237420
 21
13.903476
 31
0.0
  0
LINE
  5
23b
100
AcDbEntity
  8
Ebene_1
 62
7
100
AcDbLine
 10
-45.237420
 20
13.903476
 30
0.0
 11
-43.252088
 21
13.199896
 31
0.0
  0
LINE
  5
23c
100
AcDbEntity
  8
Ebene_1
 62
7
100
AcDbLine
 10
-43.252088
 20
13.199896
 30
0.0
 11
-41.238907
 21
12.135853
 31
0.0
  0
LINE
  5
23d
100
AcDbEntity
  8
Ebene_1
 62
7
100
AcDbLine
 10
-41.238907
 20
12.135853
 30
0.0
 11
-39.854612
 21
11.372583
 31
0.0
  0
LINE
  5
23e
100
AcDbEntity
  8
Ebene_1
 62
7
100
AcDbLine
 10
-39.854612
 20
11.372583
 30
0.0
 11
-39.605246
 21
12.428219
 31
0.0
  0
LINE
  5
23f
100
AcDbEntity
  8
Ebene_1
 62
7
100
AcDbLine
 10
-39.605246
 20
12.428219
 30
0.0
 11
-39.277420
 21
14.767319
 31
0.0
  0
LINE
  5
240
100
AcDbEntity
  8
Ebene_1
 62
7
100
AcDbLine
 10
-39.277420
 20
14.767319
 30
0.0
 11
-39.024038
 21
17.148171
 31
0.0
  0
LINE
  5
241
100
AcDbEntity
  8
Ebene_1
 62
7
100
AcDbLine
 10
-39.024038
 20
17.148171
 30
0.0
 11
-38.997989
 21
18.329062
 31
0.0
  0
LINE
  5
242
100
AcDbEntity
  8
Ebene_1
 62
7
100
AcDbLine
 10
-38.997989
 20
18.329062
 30
0.0
 11
-41.050024
 21
19.274230
 31
0.0
  0
LINE
  5
243
100
AcDbEntity
  8
Ebene_1
 62
7
100
AcDbLine
 10
-41.050024
 20
19.274230
 30
0.0
 11
-44.177912
 21
20.353558
 31
0.0
  0
LINE
  5
244
100
AcDbEntity
  8
Ebene_1
 62
7
100
AcDbLine
 10
-44.177912
 20
20.353558
 30
0.0
 11
-46.016353
 21
20.754584
 31
0.0
  0
LINE
  5
245
100
AcDbEntity
  8
Ebene_1
 62
7
100
AcDbLine
 10
-46.016353
 20
20.754584
 30
0.0
 11
-47.931866
 21
20.974864
 31
0.0
  0
LINE
  5
246
100
AcDbEntity
  8
Ebene_1
 62
7
100
AcDbLine
 10
-47.931866
 20
20.974864
 30
0.0
 11
-49.876273
 21
21.019689
 31
0.0
  0
LINE
  5
247
100
AcDbEntity
  8
Ebene_1
 62
7
100
AcDbLine
 10
-49.876273
 20
21.019689
 30
0.0
 11
-51.801389
 21
20.894352
 31
0.0
  0
LINE
  5
248
100
AcDbEntity
  8
Ebene_1
 62
7
100
AcDbLine
 10
-51.801389
 20
20.894352
 30
0.0
 11
-53.659041
 21
20.604145
 31
0.0
  0
LINE
  5
249
100
AcDbEntity
  8
Ebene_1
 62
7
100
AcDbLine
 10
-53.659041
 20
20.604145
 30
0.0
 11
-55.401046
 21
20.154359
 31
0.0
  0
LINE
  5
24a
100
AcDbEntity
  8
Ebene_1
 62
7
100
AcDbLine
 10
-55.401046
 20
20.154359
 30
0.0
 11
-56.979225
 21
19.550291
 31
0.0
  0
LINE
  5
24b
100
AcDbEntity
  8
Ebene_1
 62
7
100
AcDbLine
 10
-56.979225
 20
19.550291
 30
0.0
 11
-58.345397
 21
18.797229
 31
0.0
  0
LINE
  5
24c
100
AcDbEntity
  8
Ebene_1
 62
7
100
AcDbLine
 10
-58.345397
 20
18.797229
 30
0.0
 11
-59.623720
 21
17.743496
 31
0.0
  0
LINE
  5
24d
100
AcDbEntity
  8
Ebene_1
 62
7
100
AcDbLine
 10
-59.623720
 20
17.743496
 30
0.0
 11
-60.631962
 21
16.472505
 31
0.0
  0
LINE
  5
24e
100
AcDbEntity
  8
Ebene_1
 62
7
100
AcDbLine
 10
-60.631962
 20
16.472505
 30
0.0
 11
-61.347313
 21
15.020300
 31
0.0
  0
LINE
  5
24f
100
AcDbEntity
  8
Ebene_1
 62
7
100
AcDbLine
 10
-61.347313
 20
15.020300
 30
0.0
 11
-61.746960
 21
13.422916
 31
0.0
  0
LINE
  5
250
100
AcDbEntity
  8
Ebene_1
 62
7
100
AcDbLine
 10
-61.746960
 20
13.422916
 30
0.0
 11
-61.809511
 21
11.437870
 31
0.0
  0
LINE
  5
251
100
AcDbEntity
  8
Ebene_1
 62
7
100
AcDbLine
 10
-61.809511
 20
11.437870
 30
0.0
 11
-61.445146
 21
9.531459
 31
0.0
  0
LINE
  5
252
100
AcDbEntity
  8
Ebene_1
 62
7
100
AcDbLine
 10
-61.445146
 20
9.531459
 30
0.0
 11
-60.674312
 21
7.769785
 31
0.0
  0
LINE
  5
253
100
AcDbEntity
  8
Ebene_1
 62
7
100
AcDbLine
 10
-60.674312
 20
7.769785
 30
0.0
 11
-59.517478
 21
6.218960
 31
0.0
  0
LINE
  5
254
100
AcDbEntity
  8
Ebene_1
 62
7
100
AcDbLine
 10
-59.517478
 20
6.218960
 30
0.0
 11
-58.274424
 21
5.074786
 31
0.0
  0
LINE
  5
255
100
AcDbEntity
  8
Ebene_1
 62
7
100
AcDbLine
 10
-58.274424
 20
5.074786
 30
0.0
 11
-56.754646
 21
4.065463
 31
0.0
  0
LINE
  5
256
100
AcDbEntity
  8
Ebene_1
 62
7
100
AcDbLine
 10
-56.754646
 20
4.065463
 30
0.0
 11
-54.709190
 21
3.049573
 31
0.0
  0
LINE
  5
257
100
AcDbEntity
  8
Ebene_1
 62
7
100
AcDbLine
 10
-54.709190
 20
3.049573
 30
0.0
 11
-51.889090
 21
1.885697
 31
0.0
  0
LINE
  5
258
100
AcDbEntity
  8
Ebene_1
 62
7
100
AcDbLine
 10
-51.889090
 20
1.885697
 30
0.0
 11
-49.030715
 21
0.694556
 31
0.0
  0
LINE
  5
259
100
AcDbEntity
  8
Ebene_1
 62
7
100
AcDbLine
 10
-49.030715
 20
0.694556
 30
0.0
 11
-47.289009
 21
-0.261585
 31
0.0
  0
LINE
  5
25a
100
AcDbEntity
  8
Ebene_1
 62
7
100
AcDbLine
 10
-47.289009
 20
-0.261585
 30
0.0
 11
-46.761186
 21
-0.705187
 31
0.0
  0
LINE
  5
25b
100
AcDbEntity
  8
Ebene_1
 62
7
100
AcDbLine
 10
-46.761186
 20
-0.705187
 30
0.0
 11
-46.421669
 21
-1.154434
 31
0.0
  0
LINE
  5
25c
100
AcDbEntity
  8
Ebene_1
 62
7
100
AcDbLine
 10
-46.421669
 20
-1.154434
 30
0.0
 11
-46.240169
 21
-1.630786
 31
0.0
  0
LINE
  5
25d
100
AcDbEntity
  8
Ebene_1
 62
7
100
AcDbLine
 10
-46.240169
 20
-1.630786
 30
0.0
 11
-46.186400
 21
-2.155705
 31
0.0
  0
LINE
  5
25e
100
AcDbEntity
  8
Ebene_1
 62
7
100
AcDbLine
 10
-46.186400
 20
-2.155705
 30
0.0
 11
-46.285469
 21
-2.839724
 31
0.0
  0
LINE
  5
25f
100
AcDbEntity
  8
Ebene_1
 62
7
100
AcDbLine
 10
-46.285469
 20
-2.839724
 30
0.0
 11
-46.703691
 21
-3.370511
 31
0.0
  0
LINE
  5
260
100
AcDbEntity
  8
Ebene_1
 62
7
100
AcDbLine
 10
-46.703691
 20
-3.370511
 30
0.0
 11
-47.335931
 21
-3.825820
 31
0.0
  0
LINE
  5
261
100
AcDbEntity
  8
Ebene_1
 62
7
100
AcDbLine
 10
-47.335931
 20
-3.825820
 30
0.0
 11
-48.168015
 21
-4.102403
 31
0.0
  0
LINE
  5
262
100
AcDbEntity
  8
Ebene_1
 62
7
100
AcDbLine
 10
-48.168015
 20
-4.102403
 30
0.0
 11
-49.393921
 21
-4.239225
 31
0.0
  0
LINE
  5
263
100
AcDbEntity
  8
Ebene_1
 62
7
100
AcDbLine
 10
-49.393921
 20
-4.239225
 30
0.0
 11
-51.207628
 21
-4.275248
 31
0.0
  0
LINE
  5
264
100
AcDbEntity
  8
Ebene_1
 62
7
100
AcDbLine
 10
-51.207628
 20
-4.275248
 30
0.0
 11
-53.360032
 21
-4.208124
 31
0.0
  0
LINE
  5
265
100
AcDbEntity
  8
Ebene_1
 62
7
100
AcDbLine
 10
-53.360032
 20
-4.208124
 30
0.0
 11
-55.072599
 21
-3.956184
 31
0.0
  0
LINE
  5
266
100
AcDbEntity
  8
Ebene_1
 62
7
100
AcDbLine
 10
-55.072599
 20
-3.956184
 30
0.0
 11
-56.693570
 21
-3.439142
 31
0.0
  0
LINE
  5
267
100
AcDbEntity
  8
Ebene_1
 62
7
100
AcDbLine
 10
-56.693570
 20
-3.439142
 30
0.0
 11
-58.571201
 21
-2.576699
 31
0.0
  0
LINE
  5
268
100
AcDbEntity
  8
Ebene_1
 62
7
100
AcDbLine
 10
-58.571201
 20
-2.576699
 30
0.0
 11
-60.132400
 21
-1.858232
 31
0.0
  0
LINE
  5
269
100
AcDbEntity
  8
Ebene_1
 62
7
100
AcDbLine
 10
-60.132400
 20
-1.858232
 30
0.0
 11
-60.815491
 21
-1.683189
 31
0.0
  0
LINE
  5
26a
100
AcDbEntity
  8
Ebene_1
 62
7
100
AcDbLine
 10
-60.815491
 20
-1.683189
 30
0.0
 11
-61.362711
 21
-4.877659
 31
0.0
  0
LINE
  5
26b
100
AcDbEntity
  8
Ebene_1
 62
7
100
AcDbLine
 10
-61.362711
 20
-4.877659
 30
0.0
 11
-61.638488
 21
-7.374951
 31
0.0
  0
LINE
  5
26c
100
AcDbEntity
  8
Ebene_1
 62
7
100
AcDbLine
 10
-61.638488
 20
-7.374951
 30
0.0
 11
-61.545346
 21
-8.177218
 31
0.0
  0
LINE
  5
26d
100
AcDbEntity
  8
Ebene_1
 62
7
100
AcDbLine
 10
-61.545346
 20
-8.177218
 30
0.0
 11
-60.898083
 21
-8.613421
 31
0.0
  0
LINE
  5
26e
100
AcDbEntity
  8
Ebene_1
 62
7
100
AcDbLine
 10
-60.898083
 20
-8.613421
 30
0.0
 11
-59.689746
 21
-9.205887
 31
0.0
  0
LINE
  5
26f
100
AcDbEntity
  8
Ebene_1
 62
7
100
AcDbLine
 10
-59.689746
 20
-9.205887
 30
0.0
 11
-56.982035
 21
-10.232575
 31
0.0
  0
LINE
  5
270
100
AcDbEntity
  8
Ebene_1
 62
7
100
AcDbLine
 10
-56.982035
 20
-10.232575
 30
0.0
 11
-55.337919
 21
-10.633920
 31
0.0
  0
LINE
  5
271
100
AcDbEntity
  8
Ebene_1
 62
7
100
AcDbLine
 10
-55.337919
 20
-10.633920
 30
0.0
 11
-53.808184
 21
-10.876075
 31
0.0
  0
LINE
  5
272
100
AcDbEntity
  8
Ebene_1
 62
7
100
AcDbLine
 10
-53.808184
 20
-10.876075
 30
0.0
 11
-50.203382
 21
-10.980901
 31
0.0
  0
LINE
  5
273
100
AcDbEntity
  8
Ebene_1
 62
7
100
AcDbLine
 10
-50.203382
 20
-10.980901
 30
0.0
 11
-47.738719
 21
-10.856357
 31
0.0
  0
LINE
  5
274
100
AcDbEntity
  8
Ebene_1
 62
7
100
AcDbLine
 10
-47.738719
 20
-10.856357
 30
0.0
 11
-46.049509
 21
-10.568592
 31
0.0
  0
LINE
  5
275
100
AcDbEntity
  8
Ebene_1
 62
7
100
AcDbLine
 10
-46.049509
 20
-10.568592
 30
0.0
 11
-46.049509
 21
-10.568592
 31
0.0
  0
LINE
  5
276
100
AcDbEntity
  8
Ebene_1
 62
7
100
AcDbLine
 10
-14.640441
 20
-10.800522
 30
0.0
 11
-11.721067
 21
-10.051741
 31
0.0
  0
LINE
  5
277
100
AcDbEntity
  8
Ebene_1
 62
7
100
AcDbLine
 10
-11.721067
 20
-10.051741
 30
0.0
 11
-8.778277
 21
-8.800571
 31
0.0
  0
LINE
  5
278
100
AcDbEntity
  8
Ebene_1
 62
7
100
AcDbLine
 10
-8.778277
 20
-8.800571
 30
0.0
 11
-7.417788
 21
-8.038153
 31
0.0
  0
LINE
  5
279
100
AcDbEntity
  8
Ebene_1
 62
7
100
AcDbLine
 10
-7.417788
 20
-8.038153
 30
0.0
 11
-7.143984
 21
-7.781918
 31
0.0
  0
LINE
  5
27a
100
AcDbEntity
  8
Ebene_1
 62
7
100
AcDbLine
 10
-7.143984
 20
-7.781918
 30
0.0
 11
-7.044286
 21
-7.538507
 31
0.0
  0
LINE
  5
27b
100
AcDbEntity
  8
Ebene_1
 62
7
100
AcDbLine
 10
-7.044286
 20
-7.538507
 30
0.0
 11
-7.288914
 21
-3.782764
 31
0.0
  0
LINE
  5
27c
100
AcDbEntity
  8
Ebene_1
 62
7
100
AcDbLine
 10
-7.288914
 20
-3.782764
 30
0.0
 11
-7.558605
 21
-1.579619
 31
0.0
  0
LINE
  5
27d
100
AcDbEntity
  8
Ebene_1
 62
7
100
AcDbLine
 10
-7.558605
 20
-1.579619
 30
0.0
 11
-7.778047
 21
-0.569966
 31
0.0
  0
LINE
  5
27e
100
AcDbEntity
  8
Ebene_1
 62
7
100
AcDbLine
 10
-7.778047
 20
-0.569966
 30
0.0
 11
-8.283166
 21
-0.789179
 31
0.0
  0
LINE
  5
27f
100
AcDbEntity
  8
Ebene_1
 62
7
100
AcDbLine
 10
-8.283166
 20
-0.789179
 30
0.0
 11
-9.215484
 21
-1.424481
 31
0.0
  0
LINE
  5
280
100
AcDbEntity
  8
Ebene_1
 62
7
100
AcDbLine
 10
-9.215484
 20
-1.424481
 30
0.0
 11
-10.420545
 21
-2.241763
 31
0.0
  0
LINE
  5
281
100
AcDbEntity
  8
Ebene_1
 62
7
100
AcDbLine
 10
-10.420545
 20
-2.241763
 30
0.0
 11
-11.716549
 21
-2.969070
 31
0.0
  0
LINE
  5
282
100
AcDbEntity
  8
Ebene_1
 62
7
100
AcDbLine
 10
-11.716549
 20
-2.969070
 30
0.0
 11
-12.964185
 21
-3.535538
 31
0.0
  0
LINE
  5
283
100
AcDbEntity
  8
Ebene_1
 62
7
100
AcDbLine
 10
-12.964185
 20
-3.535538
 30
0.0
 11
-14.024130
 21
-3.870307
 31
0.0
  0
LINE
  5
284
100
AcDbEntity
  8
Ebene_1
 62
7
100
AcDbLine
 10
-14.024130
 20
-3.870307
 30
0.0
 11
-16.869489
 21
-3.999017
 31
0.0
  0
LINE
  5
285
100
AcDbEntity
  8
Ebene_1
 62
7
100
AcDbLine
 10
-16.869489
 20
-3.999017
 30
0.0
 11
-18.688002
 21
-3.863570
 31
0.0
  0
LINE
  5
286
100
AcDbEntity
  8
Ebene_1
 62
7
100
AcDbLine
 10
-18.688002
 20
-3.863570
 30
0.0
 11
-19.938721
 21
-3.410341
 31
0.0
  0
LINE
  5
287
100
AcDbEntity
  8
Ebene_1
 62
7
100
AcDbLine
 10
-19.938721
 20
-3.410341
 30
0.0
 11
-20.946107
 21
-2.837023
 31
0.0
  0
LINE
  5
288
100
AcDbEntity
  8
Ebene_1
 62
7
100
AcDbLine
 10
-20.946107
 20
-2.837023
 30
0.0
 11
-21.798173
 21
-2.199379
 31
0.0
  0
LINE
  5
289
100
AcDbEntity
  8
Ebene_1
 62
7
100
AcDbLine
 10
-21.798173
 20
-2.199379
 30
0.0
 11
-22.478630
 21
-1.446176
 31
0.0
  0
LINE
  5
28a
100
AcDbEntity
  8
Ebene_1
 62
7
100
AcDbLine
 10
-22.478630
 20
-1.446176
 30
0.0
 11
-23.062215
 21
-0.538942
 31
0.0
  0
LINE
  5
28b
100
AcDbEntity
  8
Ebene_1
 62
7
100
AcDbLine
 10
-23.062215
 20
-0.538942
 30
0.0
 11
-23.544406
 21
0.505196
 31
0.0
  0
LINE
  5
28c
100
AcDbEntity
  8
Ebene_1
 62
7
100
AcDbLine
 10
-23.544406
 20
0.505196
 30
0.0
 11
-23.920679
 21
1.669106
 31
0.0
  0
LINE
  5
28d
100
AcDbEntity
  8
Ebene_1
 62
7
100
AcDbLine
 10
-23.920679
 20
1.669106
 30
0.0
 11
-24.186504
 21
2.935660
 31
0.0
  0
LINE
  5
28e
100
AcDbEntity
  8
Ebene_1
 62
7
100
AcDbLine
 10
-24.186504
 20
2.935660
 30
0.0
 11
-24.337357
 21
4.287730
 31
0.0
  0
LINE
  5
28f
100
AcDbEntity
  8
Ebene_1
 62
7
100
AcDbLine
 10
-24.337357
 20
4.287730
 30
0.0
 11
-24.276050
 21
7.179901
 31
0.0
  0
LINE
  5
290
100
AcDbEntity
  8
Ebene_1
 62
7
100
AcDbLine
 10
-24.276050
 20
7.179901
 30
0.0
 11
-23.988909
 21
9.095456
 31
0.0
  0
LINE
  5
291
100
AcDbEntity
  8
Ebene_1
 62
7
100
AcDbLine
 10
-23.988909
 20
9.095456
 30
0.0
 11
-23.552545
 21
10.668888
 31
0.0
  0
LINE
  5
292
100
AcDbEntity
  8
Ebene_1
 62
7
100
AcDbLine
 10
-23.552545
 20
10.668888
 30
0.0
 11
-22.941901
 21
11.968964
 31
0.0
  0
LINE
  5
293
100
AcDbEntity
  8
Ebene_1
 62
7
100
AcDbLine
 10
-22.941901
 20
11.968964
 30
0.0
 11
-22.131917
 21
13.064455
 31
0.0
  0
LINE
  5
294
100
AcDbEntity
  8
Ebene_1
 62
7
100
AcDbLine
 10
-22.131917
 20
13.064455
 30
0.0
 11
-21.397911
 21
13.765878
 31
0.0
  0
LINE
  5
295
100
AcDbEntity
  8
Ebene_1
 62
7
100
AcDbLine
 10
-21.397911
 20
13.765878
 30
0.0
 11
-20.640034
 21
14.192370
 31
0.0
  0
LINE
  5
296
100
AcDbEntity
  8
Ebene_1
 62
7
100
AcDbLine
 10
-20.640034
 20
14.192370
 30
0.0
 11
-19.695696
 21
14.404974
 31
0.0
  0
LINE
  5
297
100
AcDbEntity
  8
Ebene_1
 62
7
100
AcDbLine
 10
-19.695696
 20
14.404974
 30
0.0
 11
-18.402292
 21
14.464740
 31
0.0
  0
LINE
  5
298
100
AcDbEntity
  8
Ebene_1
 62
7
100
AcDbLine
 10
-18.402292
 20
14.464740
 30
0.0
 11
-16.940090
 21
14.396479
 31
0.0
  0
LINE
  5
299
100
AcDbEntity
  8
Ebene_1
 62
7
100
AcDbLine
 10
-16.940090
 20
14.396479
 30
0.0
 11
-16.065311
 21
14.083376
 31
0.0
  0
LINE
  5
29a
100
AcDbEntity
  8
Ebene_1
 62
7
100
AcDbLine
 10
-16.065311
 20
14.083376
 30
0.0
 11
-15.785990
 21
13.788377
 31
0.0
  0
LINE
  5
29b
100
AcDbEntity
  8
Ebene_1
 62
7
100
AcDbLine
 10
-15.785990
 20
13.788377
 30
0.0
 11
-15.578867
 21
13.376211
 31
0.0
  0
LINE
  5
29c
100
AcDbEntity
  8
Ebene_1
 62
7
100
AcDbLine
 10
-15.578867
 20
13.376211
 30
0.0
 11
-15.281676
 21
12.125767
 31
0.0
  0
LINE
  5
29d
100
AcDbEntity
  8
Ebene_1
 62
7
100
AcDbLine
 10
-15.281676
 20
12.125767
 30
0.0
 11
-15.138496
 21
11.288896
 31
0.0
  0
LINE
  5
29e
100
AcDbEntity
  8
Ebene_1
 62
7
100
AcDbLine
 10
-15.138496
 20
11.288896
 30
0.0
 11
-11.288889
 21
11.288896
 31
0.0
  0
LINE
  5
29f
100
AcDbEntity
  8
Ebene_1
 62
7
100
AcDbLine
 10
-11.288889
 20
11.288896
 30
0.0
 11
-7.439285
 21
11.288896
 31
0.0
  0
LINE
  5
2a0
100
AcDbEntity
  8
Ebene_1
 62
7
100
AcDbLine
 10
-7.439285
 20
11.288896
 30
0.0
 11
-7.392405
 21
13.531944
 31
0.0
  0
LINE
  5
2a1
100
AcDbEntity
  8
Ebene_1
 62
7
100
AcDbLine
 10
-7.392405
 20
13.531944
 30
0.0
 11
-7.410326
 21
15.305102
 31
0.0
  0
LINE
  5
2a2
100
AcDbEntity
  8
Ebene_1
 62
7
100
AcDbLine
 10
-7.410326
 20
15.305102
 30
0.0
 11
-7.598743
 21
16.534436
 31
0.0
  0
LINE
  5
2a3
100
AcDbEntity
  8
Ebene_1
 62
7
100
AcDbLine
 10
-7.598743
 20
16.534436
 30
0.0
 11
-8.026389
 21
17.460424
 31
0.0
  0
LINE
  5
2a4
100
AcDbEntity
  8
Ebene_1
 62
7
100
AcDbLine
 10
-8.026389
 20
17.460424
 30
0.0
 11
-8.762004
 21
18.323536
 31
0.0
  0
LINE
  5
2a5
100
AcDbEntity
  8
Ebene_1
 62
7
100
AcDbLine
 10
-8.762004
 20
18.323536
 30
0.0
 11
-10.011562
 21
19.304272
 31
0.0
  0
LINE
  5
2a6
100
AcDbEntity
  8
Ebene_1
 62
7
100
AcDbLine
 10
-10.011562
 20
19.304272
 30
0.0
 11
-11.592518
 21
20.044524
 31
0.0
  0
LINE
  5
2a7
100
AcDbEntity
  8
Ebene_1
 62
7
100
AcDbLine
 10
-11.592518
 20
20.044524
 30
0.0
 11
-13.588351
 21
20.573922
 31
0.0
  0
LINE
  5
2a8
100
AcDbEntity
  8
Ebene_1
 62
7
100
AcDbLine
 10
-13.588351
 20
20.573922
 30
0.0
 11
-16.082543
 21
20.922100
 31
0.0
  0
LINE
  5
2a9
100
AcDbEntity
  8
Ebene_1
 62
7
100
AcDbLine
 10
-16.082543
 20
20.922100
 30
0.0
 11
-18.664902
 21
21.039073
 31
0.0
  0
LINE
  5
2aa
100
AcDbEntity
  8
Ebene_1
 62
7
100
AcDbLine
 10
-18.664902
 20
21.039073
 30
0.0
 11
-20.981492
 21
20.850585
 31
0.0
  0
LINE
  5
2ab
100
AcDbEntity
  8
Ebene_1
 62
7
100
AcDbLine
 10
-20.981492
 20
20.850585
 30
0.0
 11
-23.123206
 21
20.342435
 31
0.0
  0
LINE
  5
2ac
100
AcDbEntity
  8
Ebene_1
 62
7
100
AcDbLine
 10
-23.123206
 20
20.342435
 30
0.0
 11
-25.180945
 21
19.500420
 31
0.0
  0
LINE
  5
2ad
100
AcDbEntity
  8
Ebene_1
 62
7
100
AcDbLine
 10
-25.180945
 20
19.500420
 30
0.0
 11
-26.499797
 21
18.757870
 31
0.0
  0
LINE
  5
2ae
100
AcDbEntity
  8
Ebene_1
 62
7
100
AcDbLine
 10
-26.499797
 20
18.757870
 30
0.0
 11
-27.701875
 21
17.895473
 31
0.0
  0
LINE
  5
2af
100
AcDbEntity
  8
Ebene_1
 62
7
100
AcDbLine
 10
-27.701875
 20
17.895473
 30
0.0
 11
-28.786051
 21
16.914663
 31
0.0
  0
LINE
  5
2b0
100
AcDbEntity
  8
Ebene_1
 62
7
100
AcDbLine
 10
-28.786051
 20
16.914663
 30
0.0
 11
-29.751206
 21
15.816875
 31
0.0
  0
LINE
  5
2b1
100
AcDbEntity
  8
Ebene_1
 62
7
100
AcDbLine
 10
-29.751206
 20
15.816875
 30
0.0
 11
-30.596211
 21
14.603545
 31
0.0
  0
LINE
  5
2b2
100
AcDbEntity
  8
Ebene_1
 62
7
100
AcDbLine
 10
-30.596211
 20
14.603545
 30
0.0
 11
-31.319944
 21
13.276107
 31
0.0
  0
LINE
  5
2b3
100
AcDbEntity
  8
Ebene_1
 62
7
100
AcDbLine
 10
-31.319944
 20
13.276107
 30
0.0
 11
-31.921281
 21
11.835998
 31
0.0
  0
LINE
  5
2b4
100
AcDbEntity
  8
Ebene_1
 62
7
100
AcDbLine
 10
-31.921281
 20
11.835998
 30
0.0
 11
-32.399097
 21
10.284650
 31
0.0
  0
LINE
  5
2b5
100
AcDbEntity
  8
Ebene_1
 62
7
100
AcDbLine
 10
-32.399097
 20
10.284650
 30
0.0
 11
-32.758493
 21
8.318086
 31
0.0
  0
LINE
  5
2b6
100
AcDbEntity
  8
Ebene_1
 62
7
100
AcDbLine
 10
-32.758493
 20
8.318086
 30
0.0
 11
-32.938517
 21
6.044326
 31
0.0
  0
LINE
  5
2b7
100
AcDbEntity
  8
Ebene_1
 62
7
100
AcDbLine
 10
-32.938517
 20
6.044326
 30
0.0
 11
-32.929091
 21
3.734535
 31
0.0
  0
LINE
  5
2b8
100
AcDbEntity
  8
Ebene_1
 62
7
100
AcDbLine
 10
-32.929091
 20
3.734535
 30
0.0
 11
-32.720097
 21
1.659872
 31
0.0
  0
LINE
  5
2b9
100
AcDbEntity
  8
Ebene_1
 62
7
100
AcDbLine
 10
-32.720097
 20
1.659872
 30
0.0
 11
-32.073212
 21
-1.091995
 31
0.0
  0
LINE
  5
2ba
100
AcDbEntity
  8
Ebene_1
 62
7
100
AcDbLine
 10
-32.073212
 20
-1.091995
 30
0.0
 11
-31.165261
 21
-3.440028
 31
0.0
  0
LINE
  5
2bb
100
AcDbEntity
  8
Ebene_1
 62
7
100
AcDbLine
 10
-31.165261
 20
-3.440028
 30
0.0
 11
-30.181392
 21
-5.058239
 31
0.0
  0
LINE
  5
2bc
100
AcDbEntity
  8
Ebene_1
 62
7
100
AcDbLine
 10
-30.181392
 20
-5.058239
 30
0.0
 11
-28.906306
 21
-6.617399
 31
0.0
  0
LINE
  5
2bd
100
AcDbEntity
  8
Ebene_1
 62
7
100
AcDbLine
 10
-28.906306
 20
-6.617399
 30
0.0
 11
-27.448115
 21
-8.001109
 31
0.0
  0
LINE
  5
2be
100
AcDbEntity
  8
Ebene_1
 62
7
100
AcDbLine
 10
-27.448115
 20
-8.001109
 30
0.0
 11
-25.914917
 21
-9.092973
 31
0.0
  0
LINE
  5
2bf
100
AcDbEntity
  8
Ebene_1
 62
7
100
AcDbLine
 10
-25.914917
 20
-9.092973
 30
0.0
 11
-23.511513
 21
-10.140808
 31
0.0
  0
LINE
  5
2c0
100
AcDbEntity
  8
Ebene_1
 62
7
100
AcDbLine
 10
-23.511513
 20
-10.140808
 30
0.0
 11
-20.859631
 21
-10.871636
 31
0.0
  0
LINE
  5
2c1
100
AcDbEntity
  8
Ebene_1
 62
7
100
AcDbLine
 10
-20.859631
 20
-10.871636
 30
0.0
 11
-17.800834
 21
-11.028072
 31
0.0
  0
LINE
  5
2c2
100
AcDbEntity
  8
Ebene_1
 62
7
100
AcDbLine
 10
-17.800834
 20
-11.028072
 30
0.0
 11
-14.640453
 21
-10.800522
 31
0.0
  0
LINE
  5
2c3
100
AcDbEntity
  8
Ebene_1
 62
7
100
AcDbLine
 10
-14.640453
 20
-10.800522
 30
0.0
 11
-14.640453
 21
-10.800522
 31
0.0
  0
LINE
  5
2c4
100
AcDbEntity
  8
Ebene_1
 62
7
100
AcDbLine
 10
44.697752
 20
-10.577654
 30
0.0
 11
45.822492
 21
-10.133063
 31
0.0
  0
LINE
  5
2c5
100
AcDbEntity
  8
Ebene_1
 62
7
100
AcDbLine
 10
45.822492
 20
-10.133063
 30
0.0
 11
46.927420
 21
-9.537041
 31
0.0
  0
LINE
  5
2c6
100
AcDbEntity
  8
Ebene_1
 62
7
100
AcDbLine
 10
46.927420
 20
-9.537041
 30
0.0
 11
47.974154
 21
-8.813141
 31
0.0
  0
LINE
  5
2c7
100
AcDbEntity
  8
Ebene_1
 62
7
100
AcDbLine
 10
47.974154
 20
-8.813141
 30
0.0
 11
48.924255
 21
-7.984918
 31
0.0
  0
LINE
  5
2c8
100
AcDbEntity
  8
Ebene_1
 62
7
100
AcDbLine
 10
48.924255
 20
-7.984918
 30
0.0
 11
49.665738
 21
-7.335474
 31
0.0
  0
LINE
  5
2c9
100
AcDbEntity
  8
Ebene_1
 62
7
100
AcDbLine
 10
49.665738
 20
-7.335474
 30
0.0
 11
50.048544
 21
-7.148047
 31
0.0
  0
LINE
  5
2ca
100
AcDbEntity
  8
Ebene_1
 62
7
100
AcDbLine
 10
50.048544
 20
-7.148047
 30
0.0
 11
50.378970
 21
-8.377565
 31
0.0
  0
LINE
  5
2cb
100
AcDbEntity
  8
Ebene_1
 62
7
100
AcDbLine
 10
50.378970
 20
-8.377565
 30
0.0
 11
50.616149
 21
-9.484251
 31
0.0
  0
LINE
  5
2cc
100
AcDbEntity
  8
Ebene_1
 62
7
100
AcDbLine
 10
50.616149
 20
-9.484251
 30
0.0
 11
50.794457
 21
-9.813244
 31
0.0
  0
LINE
  5
2cd
100
AcDbEntity
  8
Ebene_1
 62
7
100
AcDbLine
 10
50.794457
 20
-9.813244
 30
0.0
 11
51.088702
 21
-10.026135
 31
0.0
  0
LINE
  5
2ce
100
AcDbEntity
  8
Ebene_1
 62
7
100
AcDbLine
 10
51.088702
 20
-10.026135
 30
0.0
 11
52.253348
 21
-10.204011
 31
0.0
  0
LINE
  5
2cf
100
AcDbEntity
  8
Ebene_1
 62
7
100
AcDbLine
 10
52.253348
 20
-10.204011
 30
0.0
 11
54.566809
 21
-10.218687
 31
0.0
  0
LINE
  5
2d0
100
AcDbEntity
  8
Ebene_1
 62
7
100
AcDbLine
 10
54.566809
 20
-10.218687
 30
0.0
 11
58.148745
 21
-10.087942
 31
0.0
  0
LINE
  5
2d1
100
AcDbEntity
  8
Ebene_1
 62
7
100
AcDbLine
 10
58.148745
 20
-10.087942
 30
0.0
 11
58.005432
 21
-8.874479
 31
0.0
  0
LINE
  5
2d2
100
AcDbEntity
  8
Ebene_1
 62
7
100
AcDbLine
 10
58.005432
 20
-8.874479
 30
0.0
 11
57.615768
 21
-6.640899
 31
0.0
  0
LINE
  5
2d3
100
AcDbEntity
  8
Ebene_1
 62
7
100
AcDbLine
 10
57.615768
 20
-6.640899
 30
0.0
 11
57.386434
 21
-4.138841
 31
0.0
  0
LINE
  5
2d4
100
AcDbEntity
  8
Ebene_1
 62
7
100
AcDbLine
 10
57.386434
 20
-4.138841
 30
0.0
 11
57.249557
 21
4.483748
 31
0.0
  0
LINE
  5
2d5
100
AcDbEntity
  8
Ebene_1
 62
7
100
AcDbLine
 10
57.249557
 20
4.483748
 30
0.0
 11
57.200563
 21
10.616473
 31
0.0
  0
LINE
  5
2d6
100
AcDbEntity
  8
Ebene_1
 62
7
100
AcDbLine
 10
57.200563
 20
10.616473
 30
0.0
 11
57.078643
 21
13.715815
 31
0.0
  0
LINE
  5
2d7
100
AcDbEntity
  8
Ebene_1
 62
7
100
AcDbLine
 10
57.078643
 20
13.715815
 30
0.0
 11
56.848773
 21
14.739940
 31
0.0
  0
LINE
  5
2d8
100
AcDbEntity
  8
Ebene_1
 62
7
100
AcDbLine
 10
56.848773
 20
14.739940
 30
0.0
 11
56.492721
 21
15.696377
 31
0.0
  0
LINE
  5
2d9
100
AcDbEntity
  8
Ebene_1
 62
7
100
AcDbLine
 10
56.492721
 20
15.696377
 30
0.0
 11
56.016217
 21
16.582597
 31
0.0
  0
LINE
  5
2da
100
AcDbEntity
  8
Ebene_1
 62
7
100
AcDbLine
 10
56.016217
 20
16.582597
 30
0.0
 11
55.425046
 21
17.396078
 31
0.0
  0
LINE
  5
2db
100
AcDbEntity
  8
Ebene_1
 62
7
100
AcDbLine
 10
55.425046
 20
17.396078
 30
0.0
 11
54.724910
 21
18.134292
 31
0.0
  0
LINE
  5
2dc
100
AcDbEntity
  8
Ebene_1
 62
7
100
AcDbLine
 10
54.724910
 20
18.134292
 30
0.0
 11
53.921592
 21
18.794712
 31
0.0
  0
LINE
  5
2dd
100
AcDbEntity
  8
Ebene_1
 62
7
100
AcDbLine
 10
53.921592
 20
18.794712
 30
0.0
 11
52.028417
 21
19.872081
 31
0.0
  0
LINE
  5
2de
100
AcDbEntity
  8
Ebene_1
 62
7
100
AcDbLine
 10
52.028417
 20
19.872081
 30
0.0
 11
49.791496
 21
20.607984
 31
0.0
  0
LINE
  5
2df
100
AcDbEntity
  8
Ebene_1
 62
7
100
AcDbLine
 10
49.791496
 20
20.607984
 30
0.0
 11
47.256858
 21
20.982213
 31
0.0
  0
LINE
  5
2e0
100
AcDbEntity
  8
Ebene_1
 62
7
100
AcDbLine
 10
47.256858
 20
20.982213
 30
0.0
 11
44.470534
 21
20.974565
 31
0.0
  0
LINE
  5
2e1
100
AcDbEntity
  8
Ebene_1
 62
7
100
AcDbLine
 10
44.470534
 20
20.974565
 30
0.0
 11
41.478527
 21
20.564849
 31
0.0
  0
LINE
  5
2e2
100
AcDbEntity
  8
Ebene_1
 62
7
100
AcDbLine
 10
41.478527
 20
20.564849
 30
0.0
 11
39.355282
 21
20.031353
 31
0.0
  0
LINE
  5
2e3
100
AcDbEntity
  8
Ebene_1
 62
7
100
AcDbLine
 10
39.355282
 20
20.031353
 30
0.0
 11
37.479780
 21
19.349834
 31
0.0
  0
LINE
  5
2e4
100
AcDbEntity
  8
Ebene_1
 62
7
100
AcDbLine
 10
37.479780
 20
19.349834
 30
0.0
 11
35.967772
 21
18.570215
 31
0.0
  0
LINE
  5
2e5
100
AcDbEntity
  8
Ebene_1
 62
7
100
AcDbLine
 10
35.967772
 20
18.570215
 30
0.0
 11
34.934988
 21
17.742421
 31
0.0
  0
LINE
  5
2e6
100
AcDbEntity
  8
Ebene_1
 62
7
100
AcDbLine
 10
34.934988
 20
17.742421
 30
0.0
 11
34.437142
 21
16.977754
 31
0.0
  0
LINE
  5
2e7
100
AcDbEntity
  8
Ebene_1
 62
7
100
AcDbLine
 10
34.437142
 20
16.977754
 30
0.0
 11
34.090384
 21
15.773842
 31
0.0
  0
LINE
  5
2e8
100
AcDbEntity
  8
Ebene_1
 62
7
100
AcDbLine
 10
34.090384
 20
15.773842
 30
0.0
 11
33.788231
 21
13.114185
 31
0.0
  0
LINE
  5
2e9
100
AcDbEntity
  8
Ebene_1
 62
7
100
AcDbLine
 10
33.788231
 20
13.114185
 30
0.0
 11
33.790489
 21
11.964877
 31
0.0
  0
LINE
  5
2ea
100
AcDbEntity
  8
Ebene_1
 62
7
100
AcDbLine
 10
33.790489
 20
11.964877
 30
0.0
 11
33.913405
 21
11.391382
 31
0.0
  0
LINE
  5
2eb
100
AcDbEntity
  8
Ebene_1
 62
7
100
AcDbLine
 10
33.913405
 20
11.391382
 30
0.0
 11
37.065842
 21
11.539865
 31
0.0
  0
LINE
  5
2ec
100
AcDbEntity
  8
Ebene_1
 62
7
100
AcDbLine
 10
37.065842
 20
11.539865
 30
0.0
 11
40.328506
 21
11.947577
 31
0.0
  0
LINE
  5
2ed
100
AcDbEntity
  8
Ebene_1
 62
7
100
AcDbLine
 10
40.328506
 20
11.947577
 30
0.0
 11
40.459070
 21
12.268450
 31
0.0
  0
LINE
  5
2ee
100
AcDbEntity
  8
Ebene_1
 62
7
100
AcDbLine
 10
40.459070
 20
12.268450
 30
0.0
 11
40.513373
 21
12.879483
 31
0.0
  0
LINE
  5
2ef
100
AcDbEntity
  8
Ebene_1
 62
7
100
AcDbLine
 10
40.513373
 20
12.879483
 30
0.0
 11
40.687924
 21
13.879038
 31
0.0
  0
LINE
  5
2f0
100
AcDbEntity
  8
Ebene_1
 62
7
100
AcDbLine
 10
40.687924
 20
13.879038
 30
0.0
 11
40.940694
 21
14.226776
 31
0.0
  0
LINE
  5
2f1
100
AcDbEntity
  8
Ebene_1
 62
7
100
AcDbLine
 10
40.940694
 20
14.226776
 30
0.0
 11
41.334507
 21
14.487532
 31
0.0
  0
LINE
  5
2f2
100
AcDbEntity
  8
Ebene_1
 62
7
100
AcDbLine
 10
41.334507
 20
14.487532
 30
0.0
 11
42.637527
 21
14.791248
 31
0.0
  0
LINE
  5
2f3
100
AcDbEntity
  8
Ebene_1
 62
7
100
AcDbLine
 10
42.637527
 20
14.791248
 30
0.0
 11
44.781399
 21
14.876465
 31
0.0
  0
LINE
  5
2f4
100
AcDbEntity
  8
Ebene_1
 62
7
100
AcDbLine
 10
44.781399
 20
14.876465
 30
0.0
 11
46.927530
 21
14.739480
 31
0.0
  0
LINE
  5
2f5
100
AcDbEntity
  8
Ebene_1
 62
7
100
AcDbLine
 10
46.927530
 20
14.739480
 30
0.0
 11
47.645673
 21
14.518797
 31
0.0
  0
LINE
  5
2f6
100
AcDbEntity
  8
Ebene_1
 62
7
100
AcDbLine
 10
47.645673
 20
14.518797
 30
0.0
 11
48.166937
 21
14.155904
 31
0.0
  0
LINE
  5
2f7
100
AcDbEntity
  8
Ebene_1
 62
7
100
AcDbLine
 10
48.166937
 20
14.155904
 30
0.0
 11
48.521070
 21
13.620249
 31
0.0
  0
LINE
  5
2f8
100
AcDbEntity
  8
Ebene_1
 62
7
100
AcDbLine
 10
48.521070
 20
13.620249
 30
0.0
 11
48.737845
 21
12.881270
 31
0.0
  0
LINE
  5
2f9
100
AcDbEntity
  8
Ebene_1
 62
7
100
AcDbLine
 10
48.737845
 20
12.881270
 30
0.0
 11
48.878391
 21
10.671111
 31
0.0
  0
LINE
  5
2fa
100
AcDbEntity
  8
Ebene_1
 62
7
100
AcDbLine
 10
48.878391
 20
10.671111
 30
0.0
 11
48.833066
 21
9.025951
 31
0.0
  0
LINE
  5
2fb
100
AcDbEntity
  8
Ebene_1
 62
7
100
AcDbLine
 10
48.833066
 20
9.025951
 30
0.0
 11
48.681146
 21
8.422780
 31
0.0
  0
LINE
  5
2fc
100
AcDbEntity
  8
Ebene_1
 62
7
100
AcDbLine
 10
48.681146
 20
8.422780
 30
0.0
 11
45.628123
 21
7.573570
 31
0.0
  0
LINE
  5
2fd
100
AcDbEntity
  8
Ebene_1
 62
7
100
AcDbLine
 10
45.628123
 20
7.573570
 30
0.0
 11
40.798425
 21
6.168439
 31
0.0
  0
LINE
  5
2fe
100
AcDbEntity
  8
Ebene_1
 62
7
100
AcDbLine
 10
40.798425
 20
6.168439
 30
0.0
 11
37.052961
 21
4.762682
 31
0.0
  0
LINE
  5
2ff
100
AcDbEntity
  8
Ebene_1
 62
7
100
AcDbLine
 10
37.052961
 20
4.762682
 30
0.0
 11
35.489473
 21
3.939042
 31
0.0
  0
LINE
  5
300
100
AcDbEntity
  8
Ebene_1
 62
7
100
AcDbLine
 10
35.489473
 20
3.939042
 30
0.0
 11
34.418699
 21
3.086045
 31
0.0
  0
LINE
  5
301
100
AcDbEntity
  8
Ebene_1
 62
7
100
AcDbLine
 10
34.418699
 20
3.086045
 30
0.0
 11
33.710555
 21
2.066771
 31
0.0
  0
LINE
  5
302
100
AcDbEntity
  8
Ebene_1
 62
7
100
AcDbLine
 10
33.710555
 20
2.066771
 30
0.0
 11
33.234955
 21
0.744314
 31
0.0
  0
LINE
  5
303
100
AcDbEntity
  8
Ebene_1
 62
7
100
AcDbLine
 10
33.234955
 20
0.744314
 30
0.0
 11
32.816142
 21
-2.026989
 31
0.0
  0
LINE
  5
304
100
AcDbEntity
  8
Ebene_1
 62
7
100
AcDbLine
 10
32.816142
 20
-2.026989
 30
0.0
 11
32.761482
 21
-3.458084
 31
0.0
  0
LINE
  5
305
100
AcDbEntity
  8
Ebene_1
 62
7
100
AcDbLine
 10
32.761482
 20
-3.458084
 30
0.0
 11
32.834512
 21
-4.592607
 31
0.0
  0
LINE
  5
306
100
AcDbEntity
  8
Ebene_1
 62
7
100
AcDbLine
 10
32.834512
 20
-4.592607
 30
0.0
 11
33.104040
 21
-5.716311
 31
0.0
  0
LINE
  5
307
100
AcDbEntity
  8
Ebene_1
 62
7
100
AcDbLine
 10
33.104040
 20
-5.716311
 30
0.0
 11
33.539170
 21
-6.761529
 31
0.0
  0
LINE
  5
308
100
AcDbEntity
  8
Ebene_1
 62
7
100
AcDbLine
 10
33.539170
 20
-6.761529
 30
0.0
 11
34.129695
 21
-7.718065
 31
0.0
  0
LINE
  5
309
100
AcDbEntity
  8
Ebene_1
 62
7
100
AcDbLine
 10
34.129695
 20
-7.718065
 30
0.0
 11
34.865412
 21
-8.575705
 31
0.0
  0
LINE
  5
30a
100
AcDbEntity
  8
Ebene_1
 62
7
100
AcDbLine
 10
34.865412
 20
-8.575705
 30
0.0
 11
35.736109
 21
-9.324248
 31
0.0
  0
LINE
  5
30b
100
AcDbEntity
  8
Ebene_1
 62
7
100
AcDbLine
 10
35.736109
 20
-9.324248
 30
0.0
 11
36.731581
 21
-9.953491
 31
0.0
  0
LINE
  5
30c
100
AcDbEntity
  8
Ebene_1
 62
7
100
AcDbLine
 10
36.731581
 20
-9.953491
 30
0.0
 11
37.841623
 21
-10.453222
 31
0.0
  0
LINE
  5
30d
100
AcDbEntity
  8
Ebene_1
 62
7
100
AcDbLine
 10
37.841623
 20
-10.453222
 30
0.0
 11
39.056028
 21
-10.813242
 31
0.0
  0
LINE
  5
30e
100
AcDbEntity
  8
Ebene_1
 62
7
100
AcDbLine
 10
39.056028
 20
-10.813242
 30
0.0
 11
40.357177
 21
-10.980026
 31
0.0
  0
LINE
  5
30f
100
AcDbEntity
  8
Ebene_1
 62
7
100
AcDbLine
 10
40.357177
 20
-10.980026
 30
0.0
 11
41.898979
 21
-10.989340
 31
0.0
  0
LINE
  5
310
100
AcDbEntity
  8
Ebene_1
 62
7
100
AcDbLine
 10
41.898979
 20
-10.989340
 30
0.0
 11
43.429724
 21
-10.851717
 31
0.0
  0
LINE
  5
311
100
AcDbEntity
  8
Ebene_1
 62
7
100
AcDbLine
 10
43.429724
 20
-10.851717
 30
0.0
 11
44.697721
 21
-10.577654
 31
0.0
  0
LINE
  5
312
100
AcDbEntity
  8
Ebene_1
 62
7
100
AcDbLine
 10
44.697721
 20
-10.577654
 30
0.0
 11
44.697721
 21
-10.577654
 31
0.0
  0
LINE
  5
313
100
AcDbEntity
  8
Ebene_1
 62
7
100
AcDbLine
 10
42.187185
 20
-4.842046
 30
0.0
 11
41.704951
 21
-4.580652
 31
0.0
  0
LINE
  5
314
100
AcDbEntity
  8
Ebene_1
 62
7
100
AcDbLine
 10
41.704951
 20
-4.580652
 30
0.0
 11
41.324121
 21
-4.217598
 31
0.0
  0
LINE
  5
315
100
AcDbEntity
  8
Ebene_1
 62
7
100
AcDbLine
 10
41.324121
 20
-4.217598
 30
0.0
 11
41.037835
 21
-3.744289
 31
0.0
  0
LINE
  5
316
100
AcDbEntity
  8
Ebene_1
 62
7
100
AcDbLine
 10
41.037835
 20
-3.744289
 30
0.0
 11
40.839291
 21
-3.152119
 31
0.0
  0
LINE
  5
317
100
AcDbEntity
  8
Ebene_1
 62
7
100
AcDbLine
 10
40.839291
 20
-3.152119
 30
0.0
 11
40.722860
 21
-2.274549
 31
0.0
  0
LINE
  5
318
100
AcDbEntity
  8
Ebene_1
 62
7
100
AcDbLine
 10
40.722860
 20
-2.274549
 30
0.0
 11
40.729069
 21
-1.291374
 31
0.0
  0
LINE
  5
319
100
AcDbEntity
  8
Ebene_1
 62
7
100
AcDbLine
 10
40.729069
 20
-1.291374
 30
0.0
 11
40.845015
 21
-0.400464
 31
0.0
  0
LINE
  5
31a
100
AcDbEntity
  8
Ebene_1
 62
7
100
AcDbLine
 10
40.845015
 20
-0.400464
 30
0.0
 11
41.057810
 21
0.200317
 31
0.0
  0
LINE
  5
31b
100
AcDbEntity
  8
Ebene_1
 62
7
100
AcDbLine
 10
41.057810
 20
0.200317
 30
0.0
 11
41.666451
 21
0.642359
 31
0.0
  0
LINE
  5
31c
100
AcDbEntity
  8
Ebene_1
 62
7
100
AcDbLine
 10
41.666451
 20
0.642359
 30
0.0
 11
42.913393
 21
1.200267
 31
0.0
  0
LINE
  5
31d
100
AcDbEntity
  8
Ebene_1
 62
7
100
AcDbLine
 10
42.913393
 20
1.200267
 30
0.0
 11
46.476110
 21
2.381748
 31
0.0
  0
LINE
  5
31e
100
AcDbEntity
  8
Ebene_1
 62
7
100
AcDbLine
 10
46.476110
 20
2.381748
 30
0.0
 11
48.737218
 21
2.906269
 31
0.0
  0
LINE
  5
31f
100
AcDbEntity
  8
Ebene_1
 62
7
100
AcDbLine
 10
48.737218
 20
2.906269
 30
0.0
 11
48.882083
 21
0.641323
 31
0.0
  0
LINE
  5
320
100
AcDbEntity
  8
Ebene_1
 62
7
100
AcDbLine
 10
48.882083
 20
0.641323
 30
0.0
 11
48.882083
 21
-1.534102
 31
0.0
  0
LINE
  5
321
100
AcDbEntity
  8
Ebene_1
 62
7
100
AcDbLine
 10
48.882083
 20
-1.534102
 30
0.0
 11
48.006714
 21
-2.373386
 31
0.0
  0
LINE
  5
322
100
AcDbEntity
  8
Ebene_1
 62
7
100
AcDbLine
 10
48.006714
 20
-2.373386
 30
0.0
 11
46.388678
 21
-3.704535
 31
0.0
  0
LINE
  5
323
100
AcDbEntity
  8
Ebene_1
 62
7
100
AcDbLine
 10
46.388678
 20
-3.704535
 30
0.0
 11
44.815204
 21
-4.586945
 31
0.0
  0
LINE
  5
324
100
AcDbEntity
  8
Ebene_1
 62
7
100
AcDbLine
 10
44.815204
 20
-4.586945
 30
0.0
 11
43.382588
 21
-4.979739
 31
0.0
  0
LINE
  5
325
100
AcDbEntity
  8
Ebene_1
 62
7
100
AcDbLine
 10
43.382588
 20
-4.979739
 30
0.0
 11
42.749196
 21
-4.979759
 31
0.0
  0
LINE
  5
326
100
AcDbEntity
  8
Ebene_1
 62
7
100
AcDbLine
 10
42.749196
 20
-4.979759
 30
0.0
 11
42.187179
 21
-4.842046
 31
0.0
  0
LINE
  5
327
100
AcDbEntity
  8
Ebene_1
 62
7
100
AcDbLine
 10
42.187179
 20
-4.842046
 30
0.0
 11
42.187179
 21
-4.842046
 31
0.0
  0
LINE
  5
328
100
AcDbEntity
  8
Ebene_1
 62
7
100
AcDbLine
 10
118.509720
 20
-10.469218
 30
0.0
 11
121.396938
 21
-9.340442
 31
0.0
  0
LINE
  5
329
100
AcDbEntity
  8
Ebene_1
 62
7
100
AcDbLine
 10
121.396938
 20
-9.340442
 30
0.0
 11
122.376051
 21
-8.870796
 31
0.0
  0
LINE
  5
32a
100
AcDbEntity
  8
Ebene_1
 62
7
100
AcDbLine
 10
122.376051
 20
-8.870796
 30
0.0
 11
122.650343
 21
-8.634308
 31
0.0
  0
LINE
  5
32b
100
AcDbEntity
  8
Ebene_1
 62
7
100
AcDbLine
 10
122.650343
 20
-8.634308
 30
0.0
 11
122.803025
 21
-8.308169
 31
0.0
  0
LINE
  5
32c
100
AcDbEntity
  8
Ebene_1
 62
7
100
AcDbLine
 10
122.803025
 20
-8.308169
 30
0.0
 11
122.809516
 21
-7.121323
 31
0.0
  0
LINE
  5
32d
100
AcDbEntity
  8
Ebene_1
 62
7
100
AcDbLine
 10
122.809516
 20
-7.121323
 30
0.0
 11
122.526843
 21
-4.779023
 31
0.0
  0
LINE
  5
32e
100
AcDbEntity
  8
Ebene_1
 62
7
100
AcDbLine
 10
122.526843
 20
-4.779023
 30
0.0
 11
122.193764
 21
-2.059191
 31
0.0
  0
LINE
  5
32f
100
AcDbEntity
  8
Ebene_1
 62
7
100
AcDbLine
 10
122.193764
 20
-2.059191
 30
0.0
 11
121.724767
 21
-2.122790
 31
0.0
  0
LINE
  5
330
100
AcDbEntity
  8
Ebene_1
 62
7
100
AcDbLine
 10
121.724767
 20
-2.122790
 30
0.0
 11
120.135687
 21
-2.841785
 31
0.0
  0
LINE
  5
331
100
AcDbEntity
  8
Ebene_1
 62
7
100
AcDbLine
 10
120.135687
 20
-2.841785
 30
0.0
 11
117.699911
 21
-3.798374
 31
0.0
  0
LINE
  5
332
100
AcDbEntity
  8
Ebene_1
 62
7
100
AcDbLine
 10
117.699911
 20
-3.798374
 30
0.0
 11
116.774618
 21
-3.985640
 31
0.0
  0
LINE
  5
333
100
AcDbEntity
  8
Ebene_1
 62
7
100
AcDbLine
 10
116.774618
 20
-3.985640
 30
0.0
 11
116.103860
 21
-3.962356
 31
0.0
  0
LINE
  5
334
100
AcDbEntity
  8
Ebene_1
 62
7
100
AcDbLine
 10
116.103860
 20
-3.962356
 30
0.0
 11
115.709737
 21
-3.730212
 31
0.0
  0
LINE
  5
335
100
AcDbEntity
  8
Ebene_1
 62
7
100
AcDbLine
 10
115.709737
 20
-3.730212
 30
0.0
 11
115.374654
 21
-3.312071
 31
0.0
  0
LINE
  5
336
100
AcDbEntity
  8
Ebene_1
 62
7
100
AcDbLine
 10
115.374654
 20
-3.312071
 30
0.0
 11
115.213534
 21
-2.783384
 31
0.0
  0
LINE
  5
337
100
AcDbEntity
  8
Ebene_1
 62
7
100
AcDbLine
 10
115.213534
 20
-2.783384
 30
0.0
 11
115.124577
 21
-1.505493
 31
0.0
  0
LINE
  5
338
100
AcDbEntity
  8
Ebene_1
 62
7
100
AcDbLine
 10
115.124577
 20
-1.505493
 30
0.0
 11
115.078688
 21
5.932925
 31
0.0
  0
LINE
  5
339
100
AcDbEntity
  8
Ebene_1
 62
7
100
AcDbLine
 10
115.078688
 20
5.932925
 30
0.0
 11
115.078688
 21
14.636382
 31
0.0
  0
LINE
  5
33a
100
AcDbEntity
  8
Ebene_1
 62
7
100
AcDbLine
 10
115.078688
 20
14.636382
 30
0.0
 11
118.162643
 21
14.682116
 31
0.0
  0
LINE
  5
33b
100
AcDbEntity
  8
Ebene_1
 62
7
100
AcDbLine
 10
118.162643
 20
14.682116
 30
0.0
 11
120.500798
 21
14.764863
 31
0.0
  0
LINE
  5
33c
100
AcDbEntity
  8
Ebene_1
 62
7
100
AcDbLine
 10
120.500798
 20
14.764863
 30
0.0
 11
121.472630
 21
14.915426
 31
0.0
  0
LINE
  5
33d
100
AcDbEntity
  8
Ebene_1
 62
7
100
AcDbLine
 10
121.472630
 20
14.915426
 30
0.0
 11
121.641568
 21
15.576249
 31
0.0
  0
LINE
  5
33e
100
AcDbEntity
  8
Ebene_1
 62
7
100
AcDbLine
 10
121.641568
 20
15.576249
 30
0.0
 11
121.652575
 21
17.547679
 31
0.0
  0
LINE
  5
33f
100
AcDbEntity
  8
Ebene_1
 62
7
100
AcDbLine
 10
121.652575
 20
17.547679
 30
0.0
 11
121.606403
 21
19.992355
 31
0.0
  0
LINE
  5
340
100
AcDbEntity
  8
Ebene_1
 62
7
100
AcDbLine
 10
121.606403
 20
19.992355
 30
0.0
 11
118.342616
 21
20.076043
 31
0.0
  0
LINE
  5
341
100
AcDbEntity
  8
Ebene_1
 62
7
100
AcDbLine
 10
118.342616
 20
20.076043
 30
0.0
 11
115.078801
 21
20.159730
 31
0.0
  0
LINE
  5
342
100
AcDbEntity
  8
Ebene_1
 62
7
100
AcDbLine
 10
115.078801
 20
20.159730
 30
0.0
 11
114.995122
 21
25.264639
 31
0.0
  0
LINE
  5
343
100
AcDbEntity
  8
Ebene_1
 62
7
100
AcDbLine
 10
114.995122
 20
25.264639
 30
0.0
 11
114.911443
 21
30.369551
 31
0.0
  0
LINE
  5
344
100
AcDbEntity
  8
Ebene_1
 62
7
100
AcDbLine
 10
114.911443
 20
30.369551
 30
0.0
 11
110.978140
 21
30.369551
 31
0.0
  0
LINE
  5
345
100
AcDbEntity
  8
Ebene_1
 62
7
100
AcDbLine
 10
110.978140
 20
30.369551
 30
0.0
 11
107.044837
 21
30.369551
 31
0.0
  0
LINE
  5
346
100
AcDbEntity
  8
Ebene_1
 62
7
100
AcDbLine
 10
107.044837
 20
30.369551
 30
0.0
 11
106.961158
 21
25.264639
 31
0.0
  0
LINE
  5
347
100
AcDbEntity
  8
Ebene_1
 62
7
100
AcDbLine
 10
106.961158
 20
25.264639
 30
0.0
 11
106.877479
 21
20.159730
 31
0.0
  0
LINE
  5
348
100
AcDbEntity
  8
Ebene_1
 62
7
100
AcDbLine
 10
106.877479
 20
20.159730
 30
0.0
 11
104.785310
 21
20.076043
 31
0.0
  0
LINE
  5
349
100
AcDbEntity
  8
Ebene_1
 62
7
100
AcDbLine
 10
104.785310
 20
20.076043
 30
0.0
 11
102.693112
 21
19.992355
 31
0.0
  0
LINE
  5
34a
100
AcDbEntity
  8
Ebene_1
 62
7
100
AcDbLine
 10
102.693112
 20
19.992355
 30
0.0
 11
102.693112
 21
17.398056
 31
0.0
  0
LINE
  5
34b
100
AcDbEntity
  8
Ebene_1
 62
7
100
AcDbLine
 10
102.693112
 20
17.398056
 30
0.0
 11
102.693112
 21
14.803756
 31
0.0
  0
LINE
  5
34c
100
AcDbEntity
  8
Ebene_1
 62
7
100
AcDbLine
 10
102.693112
 20
14.803756
 30
0.0
 11
104.785310
 21
14.720069
 31
0.0
  0
LINE
  5
34d
100
AcDbEntity
  8
Ebene_1
 62
7
100
AcDbLine
 10
104.785310
 20
14.720069
 30
0.0
 11
106.877479
 21
14.636382
 31
0.0
  0
LINE
  5
34e
100
AcDbEntity
  8
Ebene_1
 62
7
100
AcDbLine
 10
106.877479
 20
14.636382
 30
0.0
 11
106.971911
 21
5.012370
 31
0.0
  0
LINE
  5
34f
100
AcDbEntity
  8
Ebene_1
 62
7
100
AcDbLine
 10
106.971911
 20
5.012370
 30
0.0
 11
107.097867
 21
-3.011352
 31
0.0
  0
LINE
  5
350
100
AcDbEntity
  8
Ebene_1
 62
7
100
AcDbLine
 10
107.097867
 20
-3.011352
 30
0.0
 11
107.192750
 21
-4.679593
 31
0.0
  0
LINE
  5
351
100
AcDbEntity
  8
Ebene_1
 62
7
100
AcDbLine
 10
107.192750
 20
-4.679593
 30
0.0
 11
107.333099
 21
-5.489368
 31
0.0
  0
LINE
  5
352
100
AcDbEntity
  8
Ebene_1
 62
7
100
AcDbLine
 10
107.333099
 20
-5.489368
 30
0.0
 11
108.159192
 21
-7.436238
 31
0.0
  0
LINE
  5
353
100
AcDbEntity
  8
Ebene_1
 62
7
100
AcDbLine
 10
108.159192
 20
-7.436238
 30
0.0
 11
108.701594
 21
-8.256500
 31
0.0
  0
LINE
  5
354
100
AcDbEntity
  8
Ebene_1
 62
7
100
AcDbLine
 10
108.701594
 20
-8.256500
 30
0.0
 11
109.330329
 21
-8.974742
 31
0.0
  0
LINE
  5
355
100
AcDbEntity
  8
Ebene_1
 62
7
100
AcDbLine
 10
109.330329
 20
-8.974742
 30
0.0
 11
110.045480
 21
-9.591041
 31
0.0
  0
LINE
  5
356
100
AcDbEntity
  8
Ebene_1
 62
7
100
AcDbLine
 10
110.045480
 20
-9.591041
 30
0.0
 11
110.847104
 21
-10.105468
 31
0.0
  0
LINE
  5
357
100
AcDbEntity
  8
Ebene_1
 62
7
100
AcDbLine
 10
110.847104
 20
-10.105468
 30
0.0
 11
112.710110
 21
-10.829009
 31
0.0
  0
LINE
  5
358
100
AcDbEntity
  8
Ebene_1
 62
7
100
AcDbLine
 10
112.710110
 20
-10.829009
 30
0.0
 11
113.957927
 21
-10.998264
 31
0.0
  0
LINE
  5
359
100
AcDbEntity
  8
Ebene_1
 62
7
100
AcDbLine
 10
113.957927
 20
-10.998264
 30
0.0
 11
115.485031
 21
-10.985761
 31
0.0
  0
LINE
  5
35a
100
AcDbEntity
  8
Ebene_1
 62
7
100
AcDbLine
 10
115.485031
 20
-10.985761
 30
0.0
 11
117.074620
 21
-10.804930
 31
0.0
  0
LINE
  5
35b
100
AcDbEntity
  8
Ebene_1
 62
7
100
AcDbLine
 10
117.074620
 20
-10.804930
 30
0.0
 11
118.509974
 21
-10.469227
 31
0.0
  0
LINE
  5
35c
100
AcDbEntity
  8
Ebene_1
 62
7
100
AcDbLine
 10
118.509974
 20
-10.469227
 30
0.0
 11
118.509974
 21
-10.469227
 31
0.0
  0
LINE
  5
35d
100
AcDbEntity
  8
Ebene_1
 62
7
100
AcDbLine
 10
6.830912
 20
-0.181208
 30
0.0
 11
6.874098
 21
9.772586
 31
0.0
  0
LINE
  5
35e
100
AcDbEntity
  8
Ebene_1
 62
7
100
AcDbLine
 10
6.874098
 20
9.772586
 30
0.0
 11
7.584096
 21
10.504993
 31
0.0
  0
LINE
  5
35f
100
AcDbEntity
  8
Ebene_1
 62
7
100
AcDbLine
 10
7.584096
 20
10.504993
 30
0.0
 11
9.614400
 21
12.314771
 31
0.0
  0
LINE
  5
360
100
AcDbEntity
  8
Ebene_1
 62
7
100
AcDbLine
 10
9.614400
 20
12.314771
 30
0.0
 11
11.343135
 21
13.493912
 31
0.0
  0
LINE
  5
361
100
AcDbEntity
  8
Ebene_1
 62
7
100
AcDbLine
 10
11.343135
 20
13.493912
 30
0.0
 11
12.313107
 21
13.712205
 31
0.0
  0
LINE
  5
362
100
AcDbEntity
  8
Ebene_1
 62
7
100
AcDbLine
 10
12.313107
 20
13.712205
 30
0.0
 11
13.901129
 21
13.839716
 31
0.0
  0
LINE
  5
363
100
AcDbEntity
  8
Ebene_1
 62
7
100
AcDbLine
 10
13.901129
 20
13.839716
 30
0.0
 11
15.630649
 21
13.848324
 31
0.0
  0
LINE
  5
364
100
AcDbEntity
  8
Ebene_1
 62
7
100
AcDbLine
 10
15.630649
 20
13.848324
 30
0.0
 11
16.040568
 21
13.738438
 31
0.0
  0
LINE
  5
365
100
AcDbEntity
  8
Ebene_1
 62
7
100
AcDbLine
 10
16.040568
 20
13.738438
 30
0.0
 11
16.409190
 21
13.518917
 31
0.0
  0
LINE
  5
366
100
AcDbEntity
  8
Ebene_1
 62
7
100
AcDbLine
 10
16.409190
 20
13.518917
 30
0.0
 11
16.969224
 21
13.017355
 31
0.0
  0
LINE
  5
367
100
AcDbEntity
  8
Ebene_1
 62
7
100
AcDbLine
 10
16.969224
 20
13.017355
 30
0.0
 11
17.397075
 21
12.352143
 31
0.0
  0
LINE
  5
368
100
AcDbEntity
  8
Ebene_1
 62
7
100
AcDbLine
 10
17.397075
 20
12.352143
 30
0.0
 11
17.710980
 21
11.485636
 31
0.0
  0
LINE
  5
369
100
AcDbEntity
  8
Ebene_1
 62
7
100
AcDbLine
 10
17.710980
 20
11.485636
 30
0.0
 11
17.929163
 21
10.380191
 31
0.0
  0
LINE
  5
36a
100
AcDbEntity
  8
Ebene_1
 62
7
100
AcDbLine
 10
17.929163
 20
10.380191
 30
0.0
 11
18.140793
 21
4.976113
 31
0.0
  0
LINE
  5
36b
100
AcDbEntity
  8
Ebene_1
 62
7
100
AcDbLine
 10
18.140793
 20
4.976113
 30
0.0
 11
18.085483
 21
-5.113789
 31
0.0
  0
LINE
  5
36c
100
AcDbEntity
  8
Ebene_1
 62
7
100
AcDbLine
 10
18.085483
 20
-5.113789
 30
0.0
 11
18.001796
 21
-10.135014
 31
0.0
  0
LINE
  5
36d
100
AcDbEntity
  8
Ebene_1
 62
7
100
AcDbLine
 10
18.001796
 20
-10.135014
 30
0.0
 11
21.923558
 21
-10.180017
 31
0.0
  0
LINE
  5
36e
100
AcDbEntity
  8
Ebene_1
 62
7
100
AcDbLine
 10
21.923558
 20
-10.180017
 30
0.0
 11
25.983732
 21
-10.086612
 31
0.0
  0
LINE
  5
36f
100
AcDbEntity
  8
Ebene_1
 62
7
100
AcDbLine
 10
25.983732
 20
-10.086612
 30
0.0
 11
26.163202
 21
-6.953712
 31
0.0
  0
LINE
  5
370
100
AcDbEntity
  8
Ebene_1
 62
7
100
AcDbLine
 10
26.163202
 20
-6.953712
 30
0.0
 11
26.308129
 21
-0.140887
 31
0.0
  0
LINE
  5
371
100
AcDbEntity
  8
Ebene_1
 62
7
100
AcDbLine
 10
26.308129
 20
-0.140887
 30
0.0
 11
26.369272
 21
7.014008
 31
0.0
  0
LINE
  5
372
100
AcDbEntity
  8
Ebene_1
 62
7
100
AcDbLine
 10
26.369272
 20
7.014008
 30
0.0
 11
26.297385
 21
11.173120
 31
0.0
  0
LINE
  5
373
100
AcDbEntity
  8
Ebene_1
 62
7
100
AcDbLine
 10
26.297385
 20
11.173120
 30
0.0
 11
25.960231
 21
13.402461
 31
0.0
  0
LINE
  5
374
100
AcDbEntity
  8
Ebene_1
 62
7
100
AcDbLine
 10
25.960231
 20
13.402461
 30
0.0
 11
25.416696
 21
15.308799
 31
0.0
  0
LINE
  5
375
100
AcDbEntity
  8
Ebene_1
 62
7
100
AcDbLine
 10
25.416696
 20
15.308799
 30
0.0
 11
24.649853
 21
16.909679
 31
0.0
  0
LINE
  5
376
100
AcDbEntity
  8
Ebene_1
 62
7
100
AcDbLine
 10
24.649853
 20
16.909679
 30
0.0
 11
23.642786
 21
18.222650
 31
0.0
  0
LINE
  5
377
100
AcDbEntity
  8
Ebene_1
 62
7
100
AcDbLine
 10
23.642786
 20
18.222650
 30
0.0
 11
22.378568
 21
19.265266
 31
0.0
  0
LINE
  5
378
100
AcDbEntity
  8
Ebene_1
 62
7
100
AcDbLine
 10
22.378568
 20
19.265266
 30
0.0
 11
20.840279
 21
20.055077
 31
0.0
  0
LINE
  5
379
100
AcDbEntity
  8
Ebene_1
 62
7
100
AcDbLine
 10
20.840279
 20
20.055077
 30
0.0
 11
19.011000
 21
20.609629
 31
0.0
  0
LINE
  5
37a
100
AcDbEntity
  8
Ebene_1
 62
7
100
AcDbLine
 10
19.011000
 20
20.609629
 30
0.0
 11
16.873804
 21
20.946475
 31
0.0
  0
LINE
  5
37b
100
AcDbEntity
  8
Ebene_1
 62
7
100
AcDbLine
 10
16.873804
 20
20.946475
 30
0.0
 11
14.232278
 21
20.981564
 31
0.0
  0
LINE
  5
37c
100
AcDbEntity
  8
Ebene_1
 62
7
100
AcDbLine
 10
14.232278
 20
20.981564
 30
0.0
 11
11.792757
 21
20.538122
 31
0.0
  0
LINE
  5
37d
100
AcDbEntity
  8
Ebene_1
 62
7
100
AcDbLine
 10
11.792757
 20
20.538122
 30
0.0
 11
10.660340
 21
20.140336
 31
0.0
  0
LINE
  5
37e
100
AcDbEntity
  8
Ebene_1
 62
7
100
AcDbLine
 10
10.660340
 20
20.140336
 30
0.0
 11
9.592333
 21
19.626976
 31
0.0
  0
LINE
  5
37f
100
AcDbEntity
  8
Ebene_1
 62
7
100
AcDbLine
 10
9.592333
 20
19.626976
 30
0.0
 11
8.593370
 21
18.999399
 31
0.0
  0
LINE
  5
380
100
AcDbEntity
  8
Ebene_1
 62
7
100
AcDbLine
 10
8.593370
 20
18.999399
 30
0.0
 11
7.668088
 21
18.258955
 31
0.0
  0
LINE
  5
381
100
AcDbEntity
  8
Ebene_1
 62
7
100
AcDbLine
 10
7.668088
 20
18.258955
 30
0.0
 11
7.166455
 21
17.878438
 31
0.0
  0
LINE
  5
382
100
AcDbEntity
  8
Ebene_1
 62
7
100
AcDbLine
 10
7.166455
 20
17.878438
 30
0.0
 11
6.956583
 21
17.924014
 31
0.0
  0
LINE
  5
383
100
AcDbEntity
  8
Ebene_1
 62
7
100
AcDbLine
 10
6.956583
 20
17.924014
 30
0.0
 11
6.829405
 21
28.444728
 31
0.0
  0
LINE
  5
384
100
AcDbEntity
  8
Ebene_1
 62
7
100
AcDbLine
 10
6.829405
 20
28.444728
 30
0.0
 11
6.787727
 21
38.738236
 31
0.0
  0
LINE
  5
385
100
AcDbEntity
  8
Ebene_1
 62
7
100
AcDbLine
 10
6.787727
 20
38.738236
 30
0.0
 11
2.770748
 21
38.738236
 31
0.0
  0
LINE
  5
386
100
AcDbEntity
  8
Ebene_1
 62
7
100
AcDbLine
 10
2.770748
 20
38.738236
 30
0.0
 11
-1.246234
 21
38.738236
 31
0.0
  0
LINE
  5
387
100
AcDbEntity
  8
Ebene_1
 62
7
100
AcDbLine
 10
-1.246234
 20
38.738236
 30
0.0
 11
-1.289242
 21
14.468984
 31
0.0
  0
LINE
  5
388
100
AcDbEntity
  8
Ebene_1
 62
7
100
AcDbLine
 10
-1.289242
 20
14.468984
 30
0.0
 11
-1.251483
 21
-10.012523
 31
0.0
  0
LINE
  5
389
100
AcDbEntity
  8
Ebene_1
 62
7
100
AcDbLine
 10
-1.251483
 20
-10.012523
 30
0.0
 11
-0.357756
 21
-10.171158
 31
0.0
  0
LINE
  5
38a
100
AcDbEntity
  8
Ebene_1
 62
7
100
AcDbLine
 10
-0.357756
 20
-10.171158
 30
0.0
 11
2.808503
 21
-10.179907
 31
0.0
  0
LINE
  5
38b
100
AcDbEntity
  8
Ebene_1
 62
7
100
AcDbLine
 10
2.808503
 20
-10.179907
 30
0.0
 11
6.787727
 21
-10.135022
 31
0.0
  0
LINE
  5
38c
100
AcDbEntity
  8
Ebene_1
 62
7
100
AcDbLine
 10
6.787727
 20
-10.135022
 30
0.0
 11
6.830912
 21
-0.181228
 31
0.0
  0
LINE
  5
38d
100
AcDbEntity
  8
Ebene_1
 62
7
100
AcDbLine
 10
75.138486
 20
-9.993668
 30
0.0
 11
75.291676
 21
-6.973340
 31
0.0
  0
LINE
  5
38e
100
AcDbEntity
  8
Ebene_1
 62
7
100
AcDbLine
 10
75.291676
 20
-6.973340
 30
0.0
 11
75.368187
 21
2.433860
 31
0.0
  0
LINE
  5
38f
100
AcDbEntity
  8
Ebene_1
 62
7
100
AcDbLine
 10
75.368187
 20
2.433860
 30
0.0
 11
75.411141
 21
14.636351
 31
0.0
  0
LINE
  5
390
100
AcDbEntity
  8
Ebene_1
 62
7
100
AcDbLine
 10
75.411141
 20
14.636351
 30
0.0
 11
81.352906
 21
14.636351
 31
0.0
  0
LINE
  5
391
100
AcDbEntity
  8
Ebene_1
 62
7
100
AcDbLine
 10
81.352906
 20
14.636351
 30
0.0
 11
87.294700
 21
14.636351
 31
0.0
  0
LINE
  5
392
100
AcDbEntity
  8
Ebene_1
 62
7
100
AcDbLine
 10
87.294700
 20
14.636351
 30
0.0
 11
87.337654
 21
2.433860
 31
0.0
  0
LINE
  5
393
100
AcDbEntity
  8
Ebene_1
 62
7
100
AcDbLine
 10
87.337654
 20
2.433860
 30
0.0
 11
87.414306
 21
-7.009944
 31
0.0
  0
LINE
  5
394
100
AcDbEntity
  8
Ebene_1
 62
7
100
AcDbLine
 10
87.414306
 20
-7.009944
 30
0.0
 11
87.569867
 21
-9.996696
 31
0.0
  0
LINE
  5
395
100
AcDbEntity
  8
Ebene_1
 62
7
100
AcDbLine
 10
87.569867
 20
-9.996696
 30
0.0
 11
87.831600
 21
-10.107559
 31
0.0
  0
LINE
  5
396
100
AcDbEntity
  8
Ebene_1
 62
7
100
AcDbLine
 10
87.831600
 20
-10.107559
 30
0.0
 11
88.492084
 21
-10.170393
 31
0.0
  0
LINE
  5
397
100
AcDbEntity
  8
Ebene_1
 62
7
100
AcDbLine
 10
88.492084
 20
-10.170393
 30
0.0
 11
91.627602
 21
-10.179904
 31
0.0
  0
LINE
  5
398
100
AcDbEntity
  8
Ebene_1
 62
7
100
AcDbLine
 10
91.627602
 20
-10.179904
 30
0.0
 11
95.496022
 21
-10.135030
 31
0.0
  0
LINE
  5
399
100
AcDbEntity
  8
Ebene_1
 62
7
100
AcDbLine
 10
95.496022
 20
-10.135030
 30
0.0
 11
95.579729
 21
2.250656
 31
0.0
  0
LINE
  5
39a
100
AcDbEntity
  8
Ebene_1
 62
7
100
AcDbLine
 10
95.579729
 20
2.250656
 30
0.0
 11
95.663408
 21
14.636342
 31
0.0
  0
LINE
  5
39b
100
AcDbEntity
  8
Ebene_1
 62
7
100
AcDbLine
 10
95.663408
 20
14.636342
 30
0.0
 11
98.843516
 21
14.720029
 31
0.0
  0
LINE
  5
39c
100
AcDbEntity
  8
Ebene_1
 62
7
100
AcDbLine
 10
98.843516
 20
14.720029
 30
0.0
 11
102.023624
 21
14.803717
 31
0.0
  0
LINE
  5
39d
100
AcDbEntity
  8
Ebene_1
 62
7
100
AcDbLine
 10
102.023624
 20
14.803717
 30
0.0
 11
102.023624
 21
17.481704
 31
0.0
  0
LINE
  5
39e
100
AcDbEntity
  8
Ebene_1
 62
7
100
AcDbLine
 10
102.023624
 20
17.481704
 30
0.0
 11
102.023624
 21
20.159691
 31
0.0
  0
LINE
  5
39f
100
AcDbEntity
  8
Ebene_1
 62
7
100
AcDbLine
 10
102.023624
 20
20.159691
 30
0.0
 11
98.843516
 21
20.243375
 31
0.0
  0
LINE
  5
3a0
100
AcDbEntity
  8
Ebene_1
 62
7
100
AcDbLine
 10
98.843516
 20
20.243375
 30
0.0
 11
95.663408
 21
20.327063
 31
0.0
  0
LINE
  5
3a1
100
AcDbEntity
  8
Ebene_1
 62
7
100
AcDbLine
 10
95.663408
 20
20.327063
 30
0.0
 11
95.703398
 21
22.502928
 31
0.0
  0
LINE
  5
3a2
100
AcDbEntity
  8
Ebene_1
 62
7
100
AcDbLine
 10
95.703398
 20
22.502928
 30
0.0
 11
95.936542
 21
26.289171
 31
0.0
  0
LINE
  5
3a3
100
AcDbEntity
  8
Ebene_1
 62
7
100
AcDbLine
 10
95.936542
 20
26.289171
 30
0.0
 11
96.480977
 21
29.154209
 31
0.0
  0
LINE
  5
3a4
100
AcDbEntity
  8
Ebene_1
 62
7
100
AcDbLine
 10
96.480977
 20
29.154209
 30
0.0
 11
96.870472
 21
30.243186
 31
0.0
  0
LINE
  5
3a5
100
AcDbEntity
  8
Ebene_1
 62
7
100
AcDbLine
 10
96.870472
 20
30.243186
 30
0.0
 11
97.338481
 21
31.104150
 31
0.0
  0
LINE
  5
3a6
100
AcDbEntity
  8
Ebene_1
 62
7
100
AcDbLine
 10
97.338481
 20
31.104150
 30
0.0
 11
97.885174
 21
31.737866
 31
0.0
  0
LINE
  5
3a7
100
AcDbEntity
  8
Ebene_1
 62
7
100
AcDbLine
 10
97.885174
 20
31.737866
 30
0.0
 11
98.510832
 21
32.145096
 31
0.0
  0
LINE
  5
3a8
100
AcDbEntity
  8
Ebene_1
 62
7
100
AcDbLine
 10
98.510832
 20
32.145096
 30
0.0
 11
99.370538
 21
32.440729
 31
0.0
  0
LINE
  5
3a9
100
AcDbEntity
  8
Ebene_1
 62
7
100
AcDbLine
 10
99.370538
 20
32.440729
 30
0.0
 11
100.367967
 21
32.640641
 31
0.0
  0
LINE
  5
3aa
100
AcDbEntity
  8
Ebene_1
 62
7
100
AcDbLine
 10
100.367967
 20
32.640641
 30
0.0
 11
102.614400
 21
32.758043
 31
0.0
  0
LINE
  5
3ab
100
AcDbEntity
  8
Ebene_1
 62
7
100
AcDbLine
 10
102.614400
 20
32.758043
 30
0.0
 11
104.927098
 21
32.506789
 31
0.0
  0
LINE
  5
3ac
100
AcDbEntity
  8
Ebene_1
 62
7
100
AcDbLine
 10
104.927098
 20
32.506789
 30
0.0
 11
106.983115
 21
31.896356
 31
0.0
  0
LINE
  5
3ad
100
AcDbEntity
  8
Ebene_1
 62
7
100
AcDbLine
 10
106.983115
 20
31.896356
 30
0.0
 11
108.015907
 21
31.507462
 31
0.0
  0
LINE
  5
3ae
100
AcDbEntity
  8
Ebene_1
 62
7
100
AcDbLine
 10
108.015907
 20
31.507462
 30
0.0
 11
108.420360
 21
31.516550
 31
0.0
  0
LINE
  5
3af
100
AcDbEntity
  8
Ebene_1
 62
7
100
AcDbLine
 10
108.420360
 20
31.516550
 30
0.0
 11
108.647210
 21
32.673983
 31
0.0
  0
LINE
  5
3b0
100
AcDbEntity
  8
Ebene_1
 62
7
100
AcDbLine
 10
108.647210
 20
32.673983
 30
0.0
 11
108.908153
 21
34.872051
 31
0.0
  0
LINE
  5
3b1
100
AcDbEntity
  8
Ebene_1
 62
7
100
AcDbLine
 10
108.908153
 20
34.872051
 30
0.0
 11
109.093770
 21
37.040601
 31
0.0
  0
LINE
  5
3b2
100
AcDbEntity
  8
Ebene_1
 62
7
100
AcDbLine
 10
109.093770
 20
37.040601
 30
0.0
 11
109.093770
 21
38.109481
 31
0.0
  0
LINE
  5
3b3
100
AcDbEntity
  8
Ebene_1
 62
7
100
AcDbLine
 10
109.093770
 20
38.109481
 30
0.0
 11
108.573522
 21
38.392158
 31
0.0
  0
LINE
  5
3b4
100
AcDbEntity
  8
Ebene_1
 62
7
100
AcDbLine
 10
108.573522
 20
38.392158
 30
0.0
 11
107.541689
 21
38.749928
 31
0.0
  0
LINE
  5
3b5
100
AcDbEntity
  8
Ebene_1
 62
7
100
AcDbLine
 10
107.541689
 20
38.749928
 30
0.0
 11
105.069818
 21
39.344906
 31
0.0
  0
LINE
  5
3b6
100
AcDbEntity
  8
Ebene_1
 62
7
100
AcDbLine
 10
105.069818
 20
39.344906
 30
0.0
 11
103.286935
 21
39.466620
 31
0.0
  0
LINE
  5
3b7
100
AcDbEntity
  8
Ebene_1
 62
7
100
AcDbLine
 10
103.286935
 20
39.466620
 30
0.0
 11
100.930860
 21
39.436222
 31
0.0
  0
LINE
  5
3b8
100
AcDbEntity
  8
Ebene_1
 62
7
100
AcDbLine
 10
100.930860
 20
39.436222
 30
0.0
 11
98.559967
 21
39.276208
 31
0.0
  0
LINE
  5
3b9
100
AcDbEntity
  8
Ebene_1
 62
7
100
AcDbLine
 10
98.559967
 20
39.276208
 30
0.0
 11
96.732606
 21
39.009065
 31
0.0
  0
LINE
  5
3ba
100
AcDbEntity
  8
Ebene_1
 62
7
100
AcDbLine
 10
96.732606
 20
39.009065
 30
0.0
 11
95.432860
 21
38.645997
 31
0.0
  0
LINE
  5
3bb
100
AcDbEntity
  8
Ebene_1
 62
7
100
AcDbLine
 10
95.432860
 20
38.645997
 30
0.0
 11
94.203613
 21
38.172115
 31
0.0
  0
LINE
  5
3bc
100
AcDbEntity
  8
Ebene_1
 62
7
100
AcDbLine
 10
94.203613
 20
38.172115
 30
0.0
 11
93.077518
 21
37.601905
 31
0.0
  0
LINE
  5
3bd
100
AcDbEntity
  8
Ebene_1
 62
7
100
AcDbLine
 10
93.077518
 20
37.601905
 30
0.0
 11
92.087257
 21
36.949847
 31
0.0
  0
LINE
  5
3be
100
AcDbEntity
  8
Ebene_1
 62
7
100
AcDbLine
 10
92.087257
 20
36.949847
 30
0.0
 11
91.169978
 21
36.257302
 31
0.0
  0
LINE
  5
3bf
100
AcDbEntity
  8
Ebene_1
 62
7
100
AcDbLine
 10
91.169978
 20
36.257302
 30
0.0
 11
88.980837
 21
36.700871
 31
0.0
  0
LINE
  5
3c0
100
AcDbEntity
  8
Ebene_1
 62
7
100
AcDbLine
 10
88.980837
 20
36.700871
 30
0.0
 11
84.785406
 21
37.356363
 31
0.0
  0
LINE
  5
3c1
100
AcDbEntity
  8
Ebene_1
 62
7
100
AcDbLine
 10
84.785406
 20
37.356363
 30
0.0
 11
82.898017
 21
37.458553
 31
0.0
  0
LINE
  5
3c2
100
AcDbEntity
  8
Ebene_1
 62
7
100
AcDbLine
 10
82.898017
 20
37.458553
 30
0.0
 11
80.857352
 21
37.436963
 31
0.0
  0
LINE
  5
3c3
100
AcDbEntity
  8
Ebene_1
 62
7
100
AcDbLine
 10
80.857352
 20
37.436963
 30
0.0
 11
77.588937
 21
37.142523
 31
0.0
  0
LINE
  5
3c4
100
AcDbEntity
  8
Ebene_1
 62
7
100
AcDbLine
 10
77.588937
 20
37.142523
 30
0.0
 11
74.888832
 21
36.488439
 31
0.0
  0
LINE
  5
3c5
100
AcDbEntity
  8
Ebene_1
 62
7
100
AcDbLine
 10
74.888832
 20
36.488439
 30
0.0
 11
73.721730
 21
36.016118
 31
0.0
  0
LINE
  5
3c6
100
AcDbEntity
  8
Ebene_1
 62
7
100
AcDbLine
 10
73.721730
 20
36.016118
 30
0.0
 11
72.660518
 21
35.441392
 31
0.0
  0
LINE
  5
3c7
100
AcDbEntity
  8
Ebene_1
 62
7
100
AcDbLine
 10
72.660518
 20
35.441392
 30
0.0
 11
71.693145
 21
34.760096
 31
0.0
  0
LINE
  5
3c8
100
AcDbEntity
  8
Ebene_1
 62
7
100
AcDbLine
 10
71.693145
 20
34.760096
 30
0.0
 11
70.807504
 21
33.968065
 31
0.0
  0
LINE
  5
3c9
100
AcDbEntity
  8
Ebene_1
 62
7
100
AcDbLine
 10
70.807504
 20
33.968065
 30
0.0
 11
69.992079
 21
33.045003
 31
0.0
  0
LINE
  5
3ca
100
AcDbEntity
  8
Ebene_1
 62
7
100
AcDbLine
 10
69.992079
 20
33.045003
 30
0.0
 11
69.285423
 21
32.011017
 31
0.0
  0
LINE
  5
3cb
100
AcDbEntity
  8
Ebene_1
 62
7
100
AcDbLine
 10
69.285423
 20
32.011017
 30
0.0
 11
68.684233
 21
30.856170
 31
0.0
  0
LINE
  5
3cc
100
AcDbEntity
  8
Ebene_1
 62
7
100
AcDbLine
 10
68.684233
 20
30.856170
 30
0.0
 11
68.185236
 21
29.570529
 31
0.0
  0
LINE
  5
3cd
100
AcDbEntity
  8
Ebene_1
 62
7
100
AcDbLine
 10
68.185236
 20
29.570529
 30
0.0
 11
67.785130
 21
28.144161
 31
0.0
  0
LINE
  5
3ce
100
AcDbEntity
  8
Ebene_1
 62
7
100
AcDbLine
 10
67.785130
 20
28.144161
 30
0.0
 11
67.480640
 21
26.567134
 31
0.0
  0
LINE
  5
3cf
100
AcDbEntity
  8
Ebene_1
 62
7
100
AcDbLine
 10
67.480640
 20
26.567134
 30
0.0
 11
67.145247
 21
22.921371
 31
0.0
  0
LINE
  5
3d0
100
AcDbEntity
  8
Ebene_1
 62
7
100
AcDbLine
 10
67.145247
 20
22.921371
 30
0.0
 11
67.041587
 21
20.327071
 31
0.0
  0
LINE
  5
3d1
100
AcDbEntity
  8
Ebene_1
 62
7
100
AcDbLine
 10
67.041587
 20
20.327071
 30
0.0
 11
64.530966
 21
20.243384
 31
0.0
  0
LINE
  5
3d2
100
AcDbEntity
  8
Ebene_1
 62
7
100
AcDbLine
 10
64.530966
 20
20.243384
 30
0.0
 11
62.020346
 21
20.159699
 31
0.0
  0
LINE
  5
3d3
100
AcDbEntity
  8
Ebene_1
 62
7
100
AcDbLine
 10
62.020346
 20
20.159699
 30
0.0
 11
62.020346
 21
17.481712
 31
0.0
  0
LINE
  5
3d4
100
AcDbEntity
  8
Ebene_1
 62
7
100
AcDbLine
 10
62.020346
 20
17.481712
 30
0.0
 11
62.020346
 21
14.803725
 31
0.0
  0
LINE
  5
3d5
100
AcDbEntity
  8
Ebene_1
 62
7
100
AcDbLine
 10
62.020346
 20
14.803725
 30
0.0
 11
64.530966
 21
14.720038
 31
0.0
  0
LINE
  5
3d6
100
AcDbEntity
  8
Ebene_1
 62
7
100
AcDbLine
 10
64.530966
 20
14.720038
 30
0.0
 11
67.041587
 21
14.636351
 31
0.0
  0
LINE
  5
3d7
100
AcDbEntity
  8
Ebene_1
 62
7
100
AcDbLine
 10
67.041587
 20
14.636351
 30
0.0
 11
67.083158
 21
2.418039
 31
0.0
  0
LINE
  5
3d8
100
AcDbEntity
  8
Ebene_1
 62
7
100
AcDbLine
 10
67.083158
 20
2.418039
 30
0.0
 11
67.203441
 21
-10.009492
 31
0.0
  0
LINE
  5
3d9
100
AcDbEntity
  8
Ebene_1
 62
7
100
AcDbLine
 10
67.203441
 20
-10.009492
 30
0.0
 11
68.456310
 21
-10.184433
 31
0.0
  0
LINE
  5
3da
100
AcDbEntity
  8
Ebene_1
 62
7
100
AcDbLine
 10
68.456310
 20
-10.184433
 30
0.0
 11
71.116650
 21
-10.238276
 31
0.0
  0
LINE
  5
3db
100
AcDbEntity
  8
Ebene_1
 62
7
100
AcDbLine
 10
71.116650
 20
-10.238276
 30
0.0
 11
73.803942
 21
-10.173774
 31
0.0
  0
LINE
  5
3dc
100
AcDbEntity
  8
Ebene_1
 62
7
100
AcDbLine
 10
73.803942
 20
-10.173774
 30
0.0
 11
75.137639
 21
-9.993688
 31
0.0
  0
LINE
  5
3dd
100
AcDbEntity
  8
Ebene_1
 62
7
100
AcDbLine
 10
75.137639
 20
-9.993688
 30
0.0
 11
75.137639
 21
-9.993668
 31
0.0
  0
LINE
  5
3de
100
AcDbEntity
  8
Ebene_1
 62
7
100
AcDbLine
 10
75.381790
 20
20.508387
 30
0.0
 11
75.375016
 21
22.644553
 31
0.0
  0
LINE
  5
3df
100
AcDbEntity
  8
Ebene_1
 62
7
100
AcDbLine
 10
75.375016
 20
22.644553
 30
0.0
 11
75.598593
 21
24.905635
 31
0.0
  0
LINE
  5
3e0
100
AcDbEntity
  8
Ebene_1
 62
7
100
AcDbLine
 10
75.598593
 20
24.905635
 30
0.0
 11
76.008944
 21
26.841889
 31
0.0
  0
LINE
  5
3e1
100
AcDbEntity
  8
Ebene_1
 62
7
100
AcDbLine
 10
76.008944
 20
26.841889
 30
0.0
 11
76.587923
 21
28.389516
 31
0.0
  0
LINE
  5
3e2
100
AcDbEntity
  8
Ebene_1
 62
7
100
AcDbLine
 10
76.587923
 20
28.389516
 30
0.0
 11
77.317439
 21
29.484722
 31
0.0
  0
LINE
  5
3e3
100
AcDbEntity
  8
Ebene_1
 62
7
100
AcDbLine
 10
77.317439
 20
29.484722
 30
0.0
 11
78.040605
 21
30.059442
 31
0.0
  0
LINE
  5
3e4
100
AcDbEntity
  8
Ebene_1
 62
7
100
AcDbLine
 10
78.040605
 20
30.059442
 30
0.0
 11
79.176268
 21
30.407196
 31
0.0
  0
LINE
  5
3e5
100
AcDbEntity
  8
Ebene_1
 62
7
100
AcDbLine
 10
79.176268
 20
30.407196
 30
0.0
 11
80.767013
 21
30.615256
 31
0.0
  0
LINE
  5
3e6
100
AcDbEntity
  8
Ebene_1
 62
7
100
AcDbLine
 10
80.767013
 20
30.615256
 30
0.0
 11
82.760631
 21
30.670657
 31
0.0
  0
LINE
  5
3e7
100
AcDbEntity
  8
Ebene_1
 62
7
100
AcDbLine
 10
82.760631
 20
30.670657
 30
0.0
 11
84.803186
 21
30.576770
 31
0.0
  0
LINE
  5
3e8
100
AcDbEntity
  8
Ebene_1
 62
7
100
AcDbLine
 10
84.803186
 20
30.576770
 30
0.0
 11
86.540715
 21
30.336974
 31
0.0
  0
LINE
  5
3e9
100
AcDbEntity
  8
Ebene_1
 62
7
100
AcDbLine
 10
86.540715
 20
30.336974
 30
0.0
 11
87.963398
 21
30.034773
 31
0.0
  0
LINE
  5
3ea
100
AcDbEntity
  8
Ebene_1
 62
7
100
AcDbLine
 10
87.963398
 20
30.034773
 30
0.0
 11
87.949569
 21
29.365277
 31
0.0
  0
LINE
  5
3eb
100
AcDbEntity
  8
Ebene_1
 62
7
100
AcDbLine
 10
87.949569
 20
29.365277
 30
0.0
 11
87.735729
 21
26.770978
 31
0.0
  0
LINE
  5
3ec
100
AcDbEntity
  8
Ebene_1
 62
7
100
AcDbLine
 10
87.735729
 20
26.770978
 30
0.0
 11
87.414842
 21
22.586624
 31
0.0
  0
LINE
  5
3ed
100
AcDbEntity
  8
Ebene_1
 62
7
100
AcDbLine
 10
87.414842
 20
22.586624
 30
0.0
 11
87.293938
 21
20.327071
 31
0.0
  0
LINE
  5
3ee
100
AcDbEntity
  8
Ebene_1
 62
7
100
AcDbLine
 10
87.293938
 20
20.327071
 30
0.0
 11
81.389567
 21
20.283084
 31
0.0
  0
LINE
  5
3ef
100
AcDbEntity
  8
Ebene_1
 62
7
100
AcDbLine
 10
81.389567
 20
20.283084
 30
0.0
 11
76.434027
 21
20.290337
 31
0.0
  0
LINE
  5
3f0
100
AcDbEntity
  8
Ebene_1
 62
7
100
AcDbLine
 10
76.434027
 20
20.290337
 30
0.0
 11
75.614764
 21
20.365710
 31
0.0
  0
LINE
  5
3f1
100
AcDbEntity
  8
Ebene_1
 62
7
100
AcDbLine
 10
75.614764
 20
20.365710
 30
0.0
 11
75.381874
 21
20.508396
 31
0.0
  0
LINE
  5
3f2
100
AcDbEntity
  8
Ebene_1
 62
7
100
AcDbLine
 10
75.381874
 20
20.508396
 30
0.0
 11
75.381931
 21
20.508396
 31
0.0
  0
LINE
  5
3f3
100
AcDbEntity
  8
Ebene_1
 62
7
100
AcDbLine
 10
138.816173
 20
6.978993
 30
0.0
 11
139.276901
 21
21.468265
 31
0.0
  0
LINE
  5
3f4
100
AcDbEntity
  8
Ebene_1
 62
7
100
AcDbLine
 10
139.276901
 20
21.468265
 30
0.0
 11
139.552971
 21
36.020977
 31
0.0
  0
LINE
  5
3f5
100
AcDbEntity
  8
Ebene_1
 62
7
100
AcDbLine
 10
139.552971
 20
36.020977
 30
0.0
 11
139.365632
 21
36.178480
 31
0.0
  0
LINE
  5
3f6
100
AcDbEntity
  8
Ebene_1
 62
7
100
AcDbLine
 10
139.365632
 20
36.178480
 30
0.0
 11
138.736220
 21
36.265822
 31
0.0
  0
LINE
  5
3f7
100
AcDbEntity
  8
Ebene_1
 62
7
100
AcDbLine
 10
138.736220
 20
36.265822
 30
0.0
 11
134.828260
 21
36.311311
 31
0.0
  0
LINE
  5
3f8
100
AcDbEntity
  8
Ebene_1
 62
7
100
AcDbLine
 10
134.828260
 20
36.311311
 30
0.0
 11
130.914431
 21
36.265785
 31
0.0
  0
LINE
  5
3f9
100
AcDbEntity
  8
Ebene_1
 62
7
100
AcDbLine
 10
130.914431
 20
36.265785
 30
0.0
 11
130.288292
 21
36.177715
 31
0.0
  0
LINE
  5
3fa
100
AcDbEntity
  8
Ebene_1
 62
7
100
AcDbLine
 10
130.288292
 20
36.177715
 30
0.0
 11
130.102308
 21
36.018406
 31
0.0
  0
LINE
  5
3fb
100
AcDbEntity
  8
Ebene_1
 62
7
100
AcDbLine
 10
130.102308
 20
36.018406
 30
0.0
 11
130.544212
 21
21.470480
 31
0.0
  0
LINE
  5
3fc
100
AcDbEntity
  8
Ebene_1
 62
7
100
AcDbLine
 10
130.544212
 20
21.470480
 30
0.0
 11
131.174273
 21
6.978993
 31
0.0
  0
LINE
  5
3fd
100
AcDbEntity
  8
Ebene_1
 62
7
100
AcDbLine
 10
131.174273
 20
6.978993
 30
0.0
 11
134.995618
 21
6.853460
 31
0.0
  0
LINE
  5
3fe
100
AcDbEntity
  8
Ebene_1
 62
7
100
AcDbLine
 10
134.995618
 20
6.853460
 30
0.0
 11
138.816173
 21
6.978993
 31
0.0
  0
LINE
  5
3ff
100
AcDbEntity
  8
Ebene_1
 62
7
100
AcDbLine
 10
138.816173
 20
6.978993
 30
0.0
 11
138.816173
 21
6.978993
 31
0.0
  0
ENDSEC
  0
SECTION
  2
OBJECTS
  0
DICTIONARY
  5
C
330
0
100
AcDbDictionary
  3
ACAD_GROUP
350
D
  3
ACAD_MLINESTYLE
350
17
  0
DICTIONARY
  5
D
330
C
100
AcDbDictionary
  0
DICTIONARY
  5
1A
330
C
100
AcDbDictionary
  0
DICTIONARY
  5
17
330
C
100
AcDbDictionary
  3
STANDARD
350
18
  0
DICTIONARY
  5
19
330
C
100
AcDbDictionary
  0
ENDSEC
  0
EOF
